<?xml version="1.0" encoding="utf-8"?>
<!-- Generator: Adobe Illustrator 16.0.0, SVG Export Plug-In . SVG Version: 6.00 Build 0)  -->
<!DOCTYPE svg PUBLIC "-//W3C//DTD SVG 1.1//EN" "http://www.w3.org/Graphics/SVG/1.1/DTD/svg11.dtd">
<svg version="1.1" id="Layer_1" xmlns="http://www.w3.org/2000/svg" xmlns:xlink="http://www.w3.org/1999/xlink" x="0px" y="0px"
	 width="1000px" height="1000px" viewBox="0 0 1000 1000" enable-background="new 0 0 1000 1000" xml:space="preserve">
<g>
	<g>
		<g>
			<g>
				<path fill="#211357" d="M222.365,919.238v25.728H118.97V781.383h29.744v137.855H222.365z"/>
				<path fill="#211357" d="M294.123,818.443c9.444,0,17.386,1.177,23.841,3.542c6.455,2.357,11.607,5.662,15.464,9.911
					c3.855,4.249,6.607,9.405,8.261,15.462c1.655,6.062,2.48,12.712,2.48,19.945v74.831c-4.408,0.945-11.056,2.09-19.95,3.425
					c-8.892,1.334-18.923,2.001-30.096,2.001c-7.395,0-14.161-0.704-20.3-2.122c-6.135-1.419-11.372-3.698-15.694-6.845
					c-4.333-3.146-7.715-7.238-10.153-12.274c-2.441-5.032-3.656-11.252-3.656-18.646c0-7.086,1.376-13.062,4.129-17.941
					c2.753-4.875,6.492-8.851,11.214-11.92c4.721-3.071,10.184-5.271,16.404-6.611c6.213-1.334,12.705-2.006,19.476-2.006
					c3.146,0,6.45,0.198,9.916,0.592c3.457,0.39,7.155,1.057,11.093,2.003v-4.718c0-3.31-0.394-6.45-1.182-9.444
					c-0.788-2.987-2.163-5.624-4.129-7.908c-1.969-2.275-4.569-4.046-7.789-5.311c-3.23-1.257-7.284-1.886-12.159-1.886
					c-6.607,0-12.668,0.472-18.174,1.412c-5.513,0.945-10,2.049-13.456,3.304l-3.541-23.132c3.62-1.256,8.888-2.516,15.816-3.776
					C278.859,819.074,286.256,818.443,294.123,818.443z M296.487,924.901c8.809,0,15.495-0.473,20.063-1.419v-31.63
					c-1.576-0.473-3.86-0.94-6.849-1.412c-2.989-0.474-6.292-0.709-9.912-0.709c-3.15,0-6.338,0.235-9.559,0.709
					c-3.229,0.472-6.14,1.338-8.735,2.594c-2.595,1.261-4.684,3.035-6.255,5.311c-1.575,2.284-2.358,5.158-2.358,8.619
					c0,6.766,2.122,11.445,6.371,14.045C283.502,923.604,289.245,924.901,296.487,924.901z"/>
				<path fill="#211357" d="M381.697,883.354c0-9.124,1.418-17.658,4.25-25.61c2.831-7.942,6.881-14.828,12.158-20.654
					c5.269-5.819,11.683-10.389,19.236-13.688c7.553-3.307,16.051-4.958,25.495-4.958c11.646,0,22.66,2.123,33.048,6.372
					l-6.14,23.369c-3.304-1.418-7.044-2.595-11.21-3.541c-4.175-0.944-8.618-1.419-13.34-1.419c-11.172,0-19.669,3.51-25.491,10.506
					c-5.824,7.007-8.735,16.88-8.735,29.624c0,12.279,2.754,21.997,8.263,29.156c5.506,7.163,14.791,10.741,27.854,10.741
					c4.875,0,9.681-0.473,14.397-1.419c4.723-0.944,8.813-2.121,12.274-3.539l4.013,23.604c-3.146,1.575-7.905,2.993-14.282,4.249
					c-6.37,1.255-12.942,1.886-19.707,1.886c-10.547,0-19.712-1.612-27.502-4.838c-7.789-3.225-14.244-7.706-19.355-13.456
					c-5.115-5.741-8.934-12.586-11.45-20.537C382.958,901.26,381.697,892.645,381.697,883.354z"/>
				<path fill="#211357" d="M610.667,941.189c-5.509,1.418-12.668,2.872-21.477,4.37c-8.818,1.49-18.494,2.241-29.037,2.241
					c-9.916,0-18.216-1.417-24.901-4.253c-6.691-2.831-12.039-6.762-16.051-11.798c-4.014-5.037-6.886-11.057-8.619-18.062
					c-1.734-6.997-2.596-14.671-2.596-23.012v-69.163h28.562v64.679c0,13.215,1.923,22.658,5.783,28.325
					c3.856,5.668,10.579,8.498,20.18,8.498c3.463,0,7.123-0.156,10.978-0.472c3.855-0.315,6.729-0.71,8.615-1.182v-99.849h28.562
					V941.189z"/>
				<path fill="#211357" d="M656.463,825.524c5.51-1.57,12.67-3.067,21.482-4.485c8.813-1.419,18.568-2.122,29.272-2.122
					c10.068,0,18.487,1.376,25.258,4.128c6.761,2.758,12.154,6.608,16.168,11.566c4.013,4.959,6.845,10.941,8.498,17.942
					c1.653,7.003,2.479,14.676,2.479,23.017v69.396h-28.563V880.05c0-6.606-0.436-12.232-1.297-16.875
					c-0.866-4.639-2.284-8.415-4.249-11.33c-1.969-2.909-4.643-5.037-8.025-6.377c-3.388-1.334-7.517-2.001-12.396-2.001
					c-3.618,0-7.395,0.232-11.33,0.704c-3.934,0.473-6.844,0.866-8.733,1.182v99.613h-28.563V825.524z"/>
				<path fill="#211357" d="M845.064,818.443c9.444,0,17.387,1.177,23.842,3.542c6.454,2.357,11.606,5.662,15.462,9.911
					c3.854,4.249,6.608,9.405,8.262,15.462c1.654,6.062,2.479,12.712,2.479,19.945v74.831c-4.405,0.945-11.056,2.09-19.947,3.425
					c-8.892,1.334-18.925,2.001-30.097,2.001c-7.395,0-14.161-0.704-20.3-2.122c-6.137-1.419-11.372-3.698-15.696-6.845
					c-4.332-3.146-7.715-7.238-10.151-12.274c-2.443-5.032-3.657-11.252-3.657-18.646c0-7.086,1.377-13.062,4.129-17.941
					c2.753-4.875,6.492-8.851,11.214-11.92c4.723-3.071,10.186-5.271,16.403-6.611c6.215-1.334,12.707-2.006,19.477-2.006
					c3.146,0,6.45,0.198,9.917,0.592c3.456,0.39,7.154,1.057,11.093,2.003v-4.718c0-3.31-0.394-6.45-1.182-9.444
					c-0.787-2.987-2.164-5.624-4.129-7.908c-1.969-2.275-4.569-4.046-7.79-5.311c-3.229-1.257-7.284-1.886-12.159-1.886
					c-6.607,0-12.669,0.472-18.173,1.412c-5.515,0.945-10.001,2.049-13.457,3.304l-3.54-23.132c3.62-1.256,8.889-2.516,15.815-3.776
					C829.8,819.074,837.195,818.443,845.064,818.443z M847.427,924.901c8.809,0,15.495-0.473,20.064-1.419v-31.63
					c-1.575-0.473-3.86-0.94-6.849-1.412c-2.989-0.474-6.294-0.709-9.912-0.709c-3.15,0-6.34,0.235-9.559,0.709
					c-3.231,0.472-6.14,1.338-8.735,2.594c-2.595,1.261-4.685,3.035-6.257,5.311c-1.575,2.284-2.357,5.158-2.357,8.619
					c0,6.766,2.122,11.445,6.371,14.045C834.443,923.604,840.184,924.901,847.427,924.901z"/>
			</g>
			<g>
				<path fill="#211357" d="M655.253,766.921c2.471,1.335,4.639,2.238,6.511,2.701c1.867,0.469,3.972,0.7,6.307,0.7
					c1.668,0,3.271-0.181,4.807-0.552c1.533-0.361,2.867-0.917,4.007-1.649c1.131-0.732,2.034-1.705,2.702-2.905
					c0.667-1.2,1.001-2.6,1.001-4.203c0-1.737-0.486-3.17-1.45-4.31c-0.968-1.131-2.174-2.113-3.604-2.951
					c-1.438-0.835-2.989-1.65-4.658-2.451c-1.668-0.802-3.22-1.738-4.657-2.804c-1.437-1.07-2.637-2.404-3.604-4.009
					c-0.97-1.598-1.451-3.669-1.451-6.204c0-2.869,0.532-5.324,1.603-7.363c1.066-2.034,2.503-3.702,4.305-5.005
					c1.803-1.302,3.869-2.251,6.21-2.854c2.336-0.599,4.735-0.899,7.206-0.899c2.136,0,4.258,0.186,6.361,0.552
					c2.1,0.366,4.119,0.917,6.057,1.649l-2.604,5.807c-1.398-0.598-3.003-1.085-4.805-1.451c-1.803-0.365-3.675-0.552-5.607-0.552
					c-1.603,0-3.155,0.167-4.656,0.501c-1.502,0.334-2.823,0.89-3.954,1.654c-1.14,0.77-2.052,1.738-2.757,2.905
					c-0.699,1.168-1.052,2.586-1.052,4.255c0,1.736,0.487,3.169,1.455,4.304c0.965,1.136,2.151,2.136,3.554,3.003
					c1.4,0.871,2.952,1.687,4.658,2.456c1.7,0.765,3.252,1.683,4.652,2.752c1.404,1.071,2.586,2.354,3.554,3.856
					c0.969,1.5,1.455,3.42,1.455,5.755c0,2.938-0.551,5.472-1.654,7.613c-1.098,2.136-2.554,3.869-4.356,5.203
					c-1.801,1.339-3.869,2.321-6.204,2.951c-2.34,0.636-4.739,0.956-7.21,0.956c-2.604,0-5.209-0.288-7.813-0.854
					c-2.599-0.565-4.972-1.45-7.107-2.65L655.253,766.921z"/>
				<path fill="#211357" d="M707.881,725.467c2.803-1.001,5.61-1.802,8.419-2.404c2.808-0.599,5.578-0.899,8.321-0.899
					c12.159,0,18.244,6.339,18.244,19.021c0,4.477-0.738,8.813-2.205,13.017c-1.47,4.207-3.625,7.929-6.46,11.168
					c-2.841,3.234-6.312,5.824-10.423,7.757c-4.11,1.937-8.799,2.905-14.077,2.905c-2.604,0-5.009-0.302-7.21-0.904l-4.438,18.526
					h-6.595L707.881,725.467z M704.029,769.122c2.072,0.603,4.18,0.898,6.321,0.898c4.147,0,7.827-0.815,11.037-2.45
					c3.213-1.636,5.917-3.768,8.128-6.409c2.206-2.637,3.878-5.607,5.02-8.911c1.135-3.304,1.704-6.658,1.704-10.06
					c0-5.009-1.107-8.666-3.313-10.969s-5.514-3.452-9.926-3.452c-1.538,0-3.095,0.135-4.665,0.398
					c-1.571,0.27-3.192,0.641-4.866,1.104L704.029,769.122z"/>
				<path fill="#211357" d="M782.669,775.729c-0.398-0.802-0.746-1.714-1.048-2.752c-0.3-1.034-0.514-2.085-0.647-3.156
					c-2.341,2.271-4.796,3.943-7.373,5.01c-2.577,1.065-5.235,1.604-7.975,1.604c-2.14,0-4.18-0.371-6.121-1.104
					c-1.937-0.736-3.642-1.872-5.115-3.406c-1.47-1.533-2.66-3.517-3.56-5.958c-0.903-2.434-1.353-5.32-1.353-8.66
					c0-5.339,0.866-10.177,2.604-14.519c1.736-4.338,4.156-8.025,7.261-11.061c3.109-3.04,6.784-5.394,11.024-7.062
					c4.239-1.668,8.868-2.502,13.877-2.502c4.139,0,8.113,0.699,11.923,2.104l-7.71,31.14c-0.398,1.668-0.732,3.233-1,4.703
					c-0.27,1.469-0.398,2.873-0.398,4.207c0,1.803,0.161,3.504,0.5,5.106c0.333,1.6,0.93,3.369,1.803,5.306L782.669,775.729z
					 M788.485,728.971c-1.205-0.265-2.308-0.469-3.308-0.598c-1.006-0.135-2.045-0.205-3.113-0.205
					c-4.145,0-7.823,0.803-11.033,2.405c-3.212,1.604-5.918,3.702-8.124,6.307c-2.211,2.604-3.896,5.575-5.064,8.911
					c-1.172,3.341-1.757,6.741-1.757,10.213c0,2.738,0.265,5.027,0.802,6.862c0.533,1.835,1.271,3.3,2.206,4.402
					c0.941,1.104,2.024,1.904,3.263,2.404c1.236,0.501,2.562,0.751,3.966,0.751c2.743,0,5.319-0.653,7.729-1.95
					c2.411-1.302,4.686-3.155,6.825-5.561c0-1.803,0.266-3.869,0.802-6.21c0.534-2.335,1.034-4.435,1.502-6.307L788.485,728.971z"/>
				<path fill="#211357" d="M835.486,772.625c-1.34,0.872-3.392,1.705-6.157,2.502c-2.772,0.803-5.858,1.206-9.265,1.206
					c-6.075,0-10.648-1.738-13.716-5.209c-3.072-3.471-4.605-8.243-4.605-14.318c0-4.537,0.699-8.893,2.1-13.067
					c1.402-4.171,3.457-7.859,6.158-11.062c2.706-3.206,6.023-5.759,9.962-7.659c3.938-1.904,8.41-2.854,13.419-2.854
					c3.471,0,6.909,0.565,10.311,1.701l-2.701,5.908c-1.539-0.603-3.054-1.02-4.556-1.252c-1.501-0.231-2.956-0.353-4.354-0.353
					c-3.54,0-6.762,0.751-9.663,2.252c-2.904,1.502-5.394,3.541-7.459,6.107c-2.072,2.572-3.676,5.543-4.806,8.916
					c-1.136,3.369-1.705,6.923-1.705,10.662c0,4.406,1.021,7.878,3.054,10.412c2.038,2.539,5.292,3.805,9.763,3.805
					c1.404,0,2.822-0.135,4.26-0.398c1.431-0.265,2.752-0.584,3.952-0.95c1.199-0.37,2.271-0.75,3.202-1.153
					c0.936-0.398,1.636-0.765,2.104-1.099L835.486,772.625z"/>
				<path fill="#211357" d="M890.452,735.48c0,3.739-0.917,6.774-2.752,9.11c-1.836,2.335-4.407,4.189-7.711,5.556
					c-3.304,1.372-7.274,2.354-11.912,2.957c-4.641,0.598-9.797,1.033-15.469,1.302v2.104c0,1.937,0.198,3.734,0.597,5.402
					c0.403,1.668,1.136,3.123,2.206,4.355c1.066,1.237,2.554,2.22,4.454,2.956c1.904,0.732,4.354,1.099,7.357,1.099
					c2.335,0,4.69-0.329,7.062-1.001c2.368-0.663,4.62-1.668,6.757-3.003l0.698,6.01c-2.266,1.266-4.771,2.252-7.506,2.952
					c-2.739,0.7-5.51,1.053-8.312,1.053c-3.671,0-6.757-0.469-9.26-1.405c-2.506-0.931-4.541-2.233-6.107-3.905
					c-1.57-1.664-2.688-3.671-3.354-6.006c-0.668-2.335-1.001-4.907-1.001-7.71c0-4.273,0.648-8.509,1.95-12.716
					c1.303-4.207,3.22-7.975,5.755-11.316c2.54-3.336,5.658-6.023,9.365-8.058c3.701-2.034,7.925-3.054,12.664-3.054
					c4.671,0,8.263,1.219,10.764,3.651C889.201,728.252,890.452,731.478,890.452,735.48z M875.337,728.071
					c-2.674,0-5.177,0.552-7.512,1.649c-2.335,1.103-4.44,2.591-6.308,4.458c-1.872,1.867-3.489,4.036-4.856,6.506
					c-1.371,2.47-2.391,5.074-3.054,7.812c5.672-0.135,10.445-0.5,14.319-1.103c3.868-0.599,6.987-1.433,9.36-2.503
					c2.368-1.07,4.054-2.354,5.056-3.855c1.001-1.501,1.501-3.22,1.501-5.157c0-2.604-0.783-4.555-2.354-5.857
					C879.924,728.72,877.871,728.071,875.337,728.071z"/>
			</g>
		</g>
	</g>
	<g>
		<linearGradient id="SVGID_1_" gradientUnits="userSpaceOnUse" x1="700.1187" y1="157.877" x2="836.9829" y2="157.877">
			<stop  offset="0.3988" style="stop-color:#7B35C6"/>
			<stop  offset="0.5806" style="stop-color:#7834C5"/>
			<stop  offset="0.7114" style="stop-color:#6F33C0"/>
			<stop  offset="0.8263" style="stop-color:#5F2FB8"/>
			<stop  offset="0.9313" style="stop-color:#492BAD"/>
			<stop  offset="1" style="stop-color:#3627A3"/>
		</linearGradient>
		<path fill="url(#SVGID_1_)" d="M770.422,232.12l-70.304-103.098l66.564-45.389l70.3,103.107L770.422,232.12z M719.877,132.753
			l54.285,79.618l43.062-29.369l-54.28-79.604L719.877,132.753z"/>
		<linearGradient id="SVGID_2_" gradientUnits="userSpaceOnUse" x1="164.3013" y1="524.4023" x2="301.1577" y2="524.4023">
			<stop  offset="0.3988" style="stop-color:#7B35C6"/>
			<stop  offset="0.5806" style="stop-color:#7834C5"/>
			<stop  offset="0.7114" style="stop-color:#6F33C0"/>
			<stop  offset="0.8263" style="stop-color:#5F2FB8"/>
			<stop  offset="0.9313" style="stop-color:#492BAD"/>
			<stop  offset="1" style="stop-color:#3627A3"/>
		</linearGradient>
		<path fill="url(#SVGID_2_)" d="M234.599,598.64l-70.298-103.093l66.562-45.383l70.295,103.097L234.599,598.64z M184.054,499.287
			l54.285,79.604l43.065-29.369l-54.281-79.604L184.054,499.287z"/>
		<linearGradient id="SVGID_3_" gradientUnits="userSpaceOnUse" x1="99.5454" y1="589.4375" x2="189.2886" y2="589.4375">
			<stop  offset="0.3988" style="stop-color:#7B35C6"/>
			<stop  offset="0.5806" style="stop-color:#7834C5"/>
			<stop  offset="0.7114" style="stop-color:#6F33C0"/>
			<stop  offset="0.8263" style="stop-color:#5F2FB8"/>
			<stop  offset="0.9313" style="stop-color:#492BAD"/>
			<stop  offset="1" style="stop-color:#3627A3"/>
		</linearGradient>
		<path fill="url(#SVGID_3_)" d="M145.436,638.041l-45.891-67.306l43.862-29.902l45.881,67.302L145.436,638.041z M114.179,573.511
			l34.023,49.888l26.45-18.03l-34.017-49.896L114.179,573.511z"/>
		<linearGradient id="SVGID_4_" gradientUnits="userSpaceOnUse" x1="810.7183" y1="100.5708" x2="900.4556" y2="100.5708">
			<stop  offset="0.3988" style="stop-color:#7B35C6"/>
			<stop  offset="0.5806" style="stop-color:#7834C5"/>
			<stop  offset="0.7114" style="stop-color:#6F33C0"/>
			<stop  offset="0.8263" style="stop-color:#5F2FB8"/>
			<stop  offset="0.9313" style="stop-color:#492BAD"/>
			<stop  offset="1" style="stop-color:#3627A3"/>
		</linearGradient>
		<path fill="url(#SVGID_4_)" d="M856.606,149.175l-45.888-67.306l43.854-29.902l45.883,67.301L856.606,149.175z M825.351,84.645
			l34.022,49.888l26.449-18.03l-34.017-49.896L825.351,84.645z"/>
		<linearGradient id="SVGID_5_" gradientUnits="userSpaceOnUse" x1="260.5298" y1="252.0664" x2="348.2529" y2="252.0664">
			<stop  offset="0.3988" style="stop-color:#7B35C6"/>
			<stop  offset="0.5806" style="stop-color:#7834C5"/>
			<stop  offset="0.7114" style="stop-color:#6F33C0"/>
			<stop  offset="0.8263" style="stop-color:#5F2FB8"/>
			<stop  offset="0.9313" style="stop-color:#492BAD"/>
			<stop  offset="1" style="stop-color:#3627A3"/>
		</linearGradient>
		<path fill="url(#SVGID_5_)" d="M348.253,252.063c0,24.23-19.639,43.864-43.861,43.864c-24.228,0-43.862-19.634-43.862-43.864
			c0-24.229,19.634-43.858,43.862-43.858C328.614,208.205,348.253,227.834,348.253,252.063z"/>
		<linearGradient id="SVGID_6_" gradientUnits="userSpaceOnUse" x1="284.6929" y1="171.8667" x2="409.8135" y2="171.8667">
			<stop  offset="0.3988" style="stop-color:#7B35C6"/>
			<stop  offset="0.5806" style="stop-color:#7834C5"/>
			<stop  offset="0.7114" style="stop-color:#6F33C0"/>
			<stop  offset="0.8263" style="stop-color:#5F2FB8"/>
			<stop  offset="0.9313" style="stop-color:#492BAD"/>
			<stop  offset="1" style="stop-color:#3627A3"/>
		</linearGradient>
		<path fill="url(#SVGID_6_)" d="M295.417,199.836c0.24-11.992,3.406-22.279,9.889-30.244c9.815-12.062,26.22-18.169,48.758-18.169
			c13.711,0,28.952,2.284,45.208,6.515l-0.009-0.056l10.551-7.85c-20.157-5.913-39.017-9.143-55.75-9.143
			c-25.5,0-45.191,7.627-56.933,22.057c-8.636,10.616-12.608,24.193-12.432,39.897C288.113,201.477,291.695,200.476,295.417,199.836
			z"/>
		<linearGradient id="SVGID_7_" gradientUnits="userSpaceOnUse" x1="274.8804" y1="346.0073" x2="738.3442" y2="346.0073">
			<stop  offset="0.3988" style="stop-color:#7B35C6"/>
			<stop  offset="0.5806" style="stop-color:#7834C5"/>
			<stop  offset="0.7114" style="stop-color:#6F33C0"/>
			<stop  offset="0.8263" style="stop-color:#5F2FB8"/>
			<stop  offset="0.9313" style="stop-color:#492BAD"/>
			<stop  offset="1" style="stop-color:#3627A3"/>
		</linearGradient>
		<path fill="url(#SVGID_7_)" d="M696.814,209.498c-41.717-58.132-110.292-92.839-183.428-92.839
			c-49.872,0-97.938,15.589-139.002,45.073c-17.41,12.488-32.784,27.006-46,43.085c4.133,2.108,7.942,4.736,11.367,7.808
			c12.293-14.795,26.551-28.178,42.64-39.73c38.716-27.803,84.015-42.501,130.996-42.501c68.719,0,133.119,32.571,172.266,87.121
			c33.168,46.203,45.754,103.004,35.43,159.931c-10.324,57.015-42.376,107.328-90.238,141.683
			c-38.739,27.794-84.039,42.483-131.011,42.483c0,0-0.01,0-0.019,0c-68.731,0-133.11-32.562-172.244-87.097
			c-33.159-46.219-45.749-103.02-35.435-159.95c0.636-3.508,1.358-6.988,2.16-10.449c-4.602-0.886-8.967-2.405-13.068-4.402
			c-0.968,4.097-1.86,8.226-2.611,12.4c-10.982,60.623,2.435,121.146,37.792,170.408c41.711,58.126,110.263,92.819,183.406,92.834
			c0.009,0,0.014,0,0.019,0c49.854,0,97.935-15.588,139.027-45.064c33.392-23.967,59.535-55.276,76.643-91.119
			c3.161-6.631,6.015-13.42,8.545-20.342c4.597-12.562,8.137-25.565,10.557-38.934C745.595,319.277,732.174,258.755,696.814,209.498
			z"/>
		<linearGradient id="SVGID_8_" gradientUnits="userSpaceOnUse" x1="322.5703" y1="413.6558" x2="734.0435" y2="413.6558">
			<stop  offset="0.3988" style="stop-color:#7B35C6"/>
			<stop  offset="0.5806" style="stop-color:#7834C5"/>
			<stop  offset="0.7114" style="stop-color:#6F33C0"/>
			<stop  offset="0.8263" style="stop-color:#5F2FB8"/>
			<stop  offset="0.9313" style="stop-color:#492BAD"/>
			<stop  offset="1" style="stop-color:#3627A3"/>
		</linearGradient>
		<path fill="url(#SVGID_8_)" d="M717.3,435.284c9.223,28.512,8.11,51.82-3.79,66.443c-9.811,12.067-26.203,18.175-48.743,18.175
			h-0.005c-57.945,0-142.666-39.638-221.104-103.455c-46.776-38.066-85.045-80.243-111.017-119.57
			c-3.146,1.992-6.514,3.647-10.072,4.954c26.392,40.143,65.544,82.991,114.443,122.791
			c80.229,65.267,167.491,105.812,227.749,105.812c0,0,0,0,0.005,0c25.495,0,45.175-7.623,56.917-22.052
			c16.033-19.712,16.367-50.217,1.585-87.495C721.434,425.757,719.451,430.562,717.3,435.284z"/>
	</g>
</g>
<g>
	<g>
		<g>
			<g>
				<path fill="#FFFFFF" d="M5931.017,919.238v25.728h-103.395V781.383h29.744v137.855H5931.017z"/>
				<path fill="#FFFFFF" d="M6002.776,818.443c9.443,0,17.386,1.177,23.841,3.542c6.455,2.357,11.606,5.662,15.464,9.911
					c3.855,4.249,6.607,9.405,8.261,15.462c1.655,6.062,2.479,12.712,2.479,19.945v74.831c-4.407,0.945-11.056,2.09-19.949,3.425
					c-8.892,1.334-18.924,2.001-30.096,2.001c-7.396,0-14.161-0.704-20.301-2.122c-6.135-1.419-11.371-3.698-15.694-6.845
					c-4.333-3.146-7.715-7.238-10.153-12.274c-2.441-5.032-3.656-11.252-3.656-18.646c0-7.086,1.377-13.062,4.129-17.941
					c2.754-4.875,6.492-8.851,11.215-11.92c4.721-3.071,10.184-5.271,16.403-6.611c6.214-1.334,12.705-2.006,19.476-2.006
					c3.146,0,6.45,0.198,9.916,0.592c3.457,0.39,7.154,1.057,11.094,2.003v-4.718c0-3.31-0.395-6.45-1.182-9.444
					c-0.788-2.987-2.164-5.624-4.129-7.908c-1.97-2.275-4.569-4.046-7.789-5.311c-3.23-1.257-7.284-1.886-12.159-1.886
					c-6.607,0-12.669,0.472-18.175,1.412c-5.513,0.945-9.999,2.049-13.455,3.304l-3.541-23.132
					c3.619-1.256,8.888-2.516,15.815-3.776C5987.512,819.074,5994.909,818.443,6002.776,818.443z M6005.139,924.901
					c8.809,0,15.495-0.473,20.064-1.419v-31.63c-1.576-0.473-3.86-0.94-6.85-1.412c-2.988-0.474-6.291-0.709-9.912-0.709
					c-3.15,0-6.338,0.235-9.559,0.709c-3.229,0.472-6.14,1.338-8.734,2.594c-2.596,1.261-4.685,3.035-6.256,5.311
					c-1.574,2.284-2.357,5.158-2.357,8.619c0,6.766,2.121,11.445,6.37,14.045C5992.155,923.604,5997.897,924.901,6005.139,924.901z"
					/>
				<path fill="#FFFFFF" d="M6090.349,883.354c0-9.124,1.419-17.658,4.251-25.61c2.83-7.942,6.881-14.828,12.157-20.654
					c5.269-5.819,11.683-10.389,19.235-13.688c7.554-3.307,16.052-4.958,25.496-4.958c11.645,0,22.66,2.123,33.048,6.372
					l-6.14,23.369c-3.305-1.418-7.044-2.595-11.21-3.541c-4.175-0.944-8.618-1.419-13.341-1.419c-11.172,0-19.669,3.51-25.49,10.506
					c-5.824,7.007-8.734,16.88-8.734,29.624c0,12.279,2.754,21.997,8.262,29.156c5.506,7.163,14.791,10.741,27.854,10.741
					c4.875,0,9.682-0.473,14.398-1.419c4.723-0.944,8.812-2.121,12.273-3.539l4.014,23.604c-3.146,1.575-7.905,2.993-14.281,4.249
					c-6.371,1.255-12.942,1.886-19.707,1.886c-10.547,0-19.713-1.612-27.502-4.838c-7.789-3.225-14.244-7.706-19.355-13.456
					c-5.115-5.741-8.934-12.586-11.451-20.537C6091.611,901.26,6090.349,892.645,6090.349,883.354z"/>
				<path fill="#FFFFFF" d="M6319.32,941.189c-5.509,1.418-12.668,2.872-21.477,4.37c-8.818,1.49-18.494,2.241-29.037,2.241
					c-9.916,0-18.216-1.417-24.901-4.253c-6.691-2.831-12.039-6.762-16.051-11.798c-4.014-5.037-6.886-11.057-8.619-18.062
					c-1.734-6.997-2.596-14.671-2.596-23.012v-69.163h28.562v64.679c0,13.215,1.923,22.658,5.783,28.325
					c3.856,5.668,10.579,8.498,20.18,8.498c3.463,0,7.123-0.156,10.978-0.472c3.855-0.315,6.729-0.71,8.615-1.182v-99.849h28.562
					V941.189z"/>
				<path fill="#FFFFFF" d="M6365.116,825.524c5.51-1.57,12.67-3.067,21.482-4.485c8.813-1.419,18.568-2.122,29.272-2.122
					c10.068,0,18.487,1.376,25.258,4.128c6.761,2.758,12.154,6.608,16.168,11.566c4.013,4.959,6.845,10.941,8.498,17.942
					c1.653,7.003,2.479,14.676,2.479,23.017v69.396h-28.563V880.05c0-6.606-0.436-12.232-1.297-16.875
					c-0.866-4.639-2.284-8.415-4.249-11.33c-1.969-2.909-4.643-5.037-8.025-6.377c-3.388-1.334-7.517-2.001-12.396-2.001
					c-3.618,0-7.395,0.232-11.33,0.704c-3.934,0.473-6.844,0.866-8.733,1.182v99.613h-28.563V825.524z"/>
				<path fill="#FFFFFF" d="M6553.716,818.443c9.444,0,17.387,1.177,23.842,3.542c6.454,2.357,11.606,5.662,15.462,9.911
					c3.854,4.249,6.608,9.405,8.262,15.462c1.654,6.062,2.479,12.712,2.479,19.945v74.831c-4.405,0.945-11.056,2.09-19.947,3.425
					c-8.892,1.334-18.925,2.001-30.097,2.001c-7.395,0-14.161-0.704-20.3-2.122c-6.137-1.419-11.372-3.698-15.696-6.845
					c-4.332-3.146-7.715-7.238-10.151-12.274c-2.443-5.032-3.657-11.252-3.657-18.646c0-7.086,1.377-13.062,4.129-17.941
					c2.753-4.875,6.492-8.851,11.214-11.92c4.723-3.071,10.186-5.271,16.403-6.611c6.215-1.334,12.707-2.006,19.477-2.006
					c3.146,0,6.45,0.198,9.917,0.592c3.456,0.39,7.154,1.057,11.093,2.003v-4.718c0-3.31-0.394-6.45-1.182-9.444
					c-0.787-2.987-2.164-5.624-4.129-7.908c-1.969-2.275-4.569-4.046-7.79-5.311c-3.229-1.257-7.284-1.886-12.159-1.886
					c-6.607,0-12.669,0.472-18.173,1.412c-5.515,0.945-10.001,2.049-13.457,3.304l-3.54-23.132c3.62-1.256,8.889-2.516,15.815-3.776
					C6538.453,819.074,6545.847,818.443,6553.716,818.443z M6556.08,924.901c8.809,0,15.495-0.473,20.064-1.419v-31.63
					c-1.575-0.473-3.86-0.94-6.849-1.412c-2.989-0.474-6.294-0.709-9.912-0.709c-3.15,0-6.34,0.235-9.559,0.709
					c-3.231,0.472-6.14,1.338-8.735,2.594c-2.595,1.261-4.685,3.035-6.257,5.311c-1.575,2.284-2.357,5.158-2.357,8.619
					c0,6.766,2.122,11.445,6.371,14.045C6543.095,923.604,6548.836,924.901,6556.08,924.901z"/>
			</g>
			<g>
				<path fill="#FFFFFF" d="M6363.906,766.921c2.471,1.335,4.639,2.238,6.511,2.701c1.867,0.469,3.972,0.7,6.307,0.7
					c1.668,0,3.271-0.181,4.807-0.552c1.533-0.361,2.867-0.917,4.007-1.649c1.131-0.732,2.034-1.705,2.702-2.905
					c0.667-1.2,1.001-2.6,1.001-4.203c0-1.737-0.486-3.17-1.45-4.31c-0.968-1.131-2.174-2.113-3.604-2.951
					c-1.438-0.835-2.989-1.65-4.658-2.451c-1.668-0.802-3.22-1.738-4.657-2.804c-1.437-1.07-2.637-2.404-3.604-4.009
					c-0.97-1.598-1.451-3.669-1.451-6.204c0-2.869,0.532-5.324,1.603-7.363c1.066-2.034,2.503-3.702,4.305-5.005
					c1.803-1.302,3.869-2.251,6.21-2.854c2.336-0.599,4.735-0.899,7.206-0.899c2.136,0,4.258,0.186,6.361,0.552
					c2.1,0.366,4.119,0.917,6.057,1.649l-2.604,5.807c-1.398-0.598-3.003-1.085-4.805-1.451c-1.803-0.365-3.675-0.552-5.607-0.552
					c-1.603,0-3.155,0.167-4.656,0.501c-1.502,0.334-2.823,0.89-3.954,1.654c-1.14,0.77-2.052,1.738-2.757,2.905
					c-0.699,1.168-1.052,2.586-1.052,4.255c0,1.736,0.487,3.169,1.455,4.304c0.965,1.136,2.151,2.136,3.554,3.003
					c1.4,0.871,2.952,1.687,4.658,2.456c1.7,0.765,3.252,1.683,4.652,2.752c1.404,1.071,2.586,2.354,3.554,3.856
					c0.969,1.5,1.455,3.42,1.455,5.755c0,2.938-0.551,5.472-1.654,7.613c-1.098,2.136-2.554,3.869-4.356,5.203
					c-1.801,1.339-3.869,2.321-6.204,2.951c-2.34,0.636-4.739,0.956-7.21,0.956c-2.604,0-5.209-0.288-7.813-0.854
					c-2.599-0.565-4.972-1.45-7.107-2.65L6363.906,766.921z"/>
				<path fill="#FFFFFF" d="M6416.534,725.467c2.803-1.001,5.61-1.802,8.419-2.404c2.808-0.599,5.578-0.899,8.321-0.899
					c12.159,0,18.244,6.339,18.244,19.021c0,4.477-0.738,8.813-2.205,13.017c-1.47,4.207-3.625,7.929-6.46,11.168
					c-2.841,3.234-6.312,5.824-10.423,7.757c-4.11,1.937-8.799,2.905-14.077,2.905c-2.604,0-5.009-0.302-7.21-0.904l-4.438,18.526
					h-6.595L6416.534,725.467z M6412.681,769.122c2.072,0.603,4.18,0.898,6.321,0.898c4.147,0,7.827-0.815,11.037-2.45
					c3.213-1.636,5.917-3.768,8.128-6.409c2.206-2.637,3.878-5.607,5.02-8.911c1.135-3.304,1.704-6.658,1.704-10.06
					c0-5.009-1.107-8.666-3.313-10.969s-5.514-3.452-9.926-3.452c-1.538,0-3.095,0.135-4.665,0.398
					c-1.571,0.27-3.192,0.641-4.866,1.104L6412.681,769.122z"/>
				<path fill="#FFFFFF" d="M6491.322,775.729c-0.398-0.802-0.746-1.714-1.048-2.752c-0.3-1.034-0.514-2.085-0.647-3.156
					c-2.341,2.271-4.796,3.943-7.373,5.01c-2.577,1.065-5.235,1.604-7.975,1.604c-2.14,0-4.18-0.371-6.121-1.104
					c-1.937-0.736-3.642-1.872-5.115-3.406c-1.47-1.533-2.66-3.517-3.56-5.958c-0.903-2.434-1.353-5.32-1.353-8.66
					c0-5.339,0.866-10.177,2.604-14.519c1.736-4.338,4.156-8.025,7.261-11.061c3.109-3.04,6.784-5.394,11.024-7.062
					c4.239-1.668,8.868-2.502,13.877-2.502c4.139,0,8.113,0.699,11.923,2.104l-7.71,31.14c-0.398,1.668-0.732,3.233-1,4.703
					c-0.27,1.469-0.398,2.873-0.398,4.207c0,1.803,0.161,3.504,0.5,5.106c0.333,1.6,0.93,3.369,1.803,5.306L6491.322,775.729z
					 M6497.137,728.971c-1.205-0.265-2.308-0.469-3.308-0.598c-1.006-0.135-2.045-0.205-3.113-0.205
					c-4.145,0-7.823,0.803-11.033,2.405c-3.212,1.604-5.918,3.702-8.124,6.307c-2.211,2.604-3.896,5.575-5.064,8.911
					c-1.172,3.341-1.757,6.741-1.757,10.213c0,2.738,0.265,5.027,0.802,6.862c0.533,1.835,1.271,3.3,2.206,4.402
					c0.941,1.104,2.024,1.904,3.263,2.404c1.236,0.501,2.562,0.751,3.966,0.751c2.743,0,5.319-0.653,7.729-1.95
					c2.411-1.302,4.686-3.155,6.825-5.561c0-1.803,0.266-3.869,0.802-6.21c0.534-2.335,1.034-4.435,1.502-6.307L6497.137,728.971z"
					/>
				<path fill="#FFFFFF" d="M6544.138,772.625c-1.34,0.872-3.392,1.705-6.157,2.502c-2.772,0.803-5.858,1.206-9.265,1.206
					c-6.075,0-10.648-1.738-13.716-5.209c-3.072-3.471-4.605-8.243-4.605-14.318c0-4.537,0.699-8.893,2.1-13.067
					c1.402-4.171,3.457-7.859,6.158-11.062c2.706-3.206,6.023-5.759,9.962-7.659c3.938-1.904,8.41-2.854,13.419-2.854
					c3.471,0,6.909,0.565,10.311,1.701l-2.701,5.908c-1.539-0.603-3.054-1.02-4.556-1.252c-1.501-0.231-2.956-0.353-4.354-0.353
					c-3.54,0-6.762,0.751-9.663,2.252c-2.904,1.502-5.394,3.541-7.459,6.107c-2.072,2.572-3.676,5.543-4.806,8.916
					c-1.136,3.369-1.705,6.923-1.705,10.662c0,4.406,1.021,7.878,3.054,10.412c2.038,2.539,5.292,3.805,9.763,3.805
					c1.404,0,2.822-0.135,4.26-0.398c1.431-0.265,2.752-0.584,3.952-0.95c1.199-0.37,2.271-0.75,3.202-1.153
					c0.936-0.398,1.636-0.765,2.104-1.099L6544.138,772.625z"/>
				<path fill="#FFFFFF" d="M6599.104,735.48c0,3.739-0.917,6.774-2.752,9.11c-1.836,2.335-4.407,4.189-7.711,5.556
					c-3.304,1.372-7.274,2.354-11.912,2.957c-4.641,0.598-9.797,1.033-15.469,1.302v2.104c0,1.937,0.198,3.734,0.597,5.402
					c0.403,1.668,1.136,3.123,2.206,4.355c1.066,1.237,2.554,2.22,4.454,2.956c1.904,0.732,4.354,1.099,7.357,1.099
					c2.335,0,4.69-0.329,7.062-1.001c2.368-0.663,4.62-1.668,6.757-3.003l0.698,6.01c-2.266,1.266-4.771,2.252-7.506,2.952
					c-2.739,0.7-5.51,1.053-8.312,1.053c-3.671,0-6.757-0.469-9.26-1.405c-2.506-0.931-4.541-2.233-6.107-3.905
					c-1.57-1.664-2.688-3.671-3.354-6.006c-0.668-2.335-1.001-4.907-1.001-7.71c0-4.273,0.648-8.509,1.95-12.716
					c1.303-4.207,3.22-7.975,5.755-11.316c2.54-3.336,5.658-6.023,9.365-8.058c3.701-2.034,7.925-3.054,12.664-3.054
					c4.671,0,8.263,1.219,10.764,3.651C6597.853,728.252,6599.104,731.478,6599.104,735.48z M6583.99,728.071
					c-2.674,0-5.177,0.552-7.512,1.649c-2.335,1.103-4.44,2.591-6.308,4.458c-1.872,1.867-3.489,4.036-4.856,6.506
					c-1.371,2.47-2.391,5.074-3.054,7.812c5.672-0.135,10.445-0.5,14.319-1.103c3.868-0.599,6.987-1.433,9.36-2.503
					c2.368-1.07,4.054-2.354,5.056-3.855c1.001-1.501,1.501-3.22,1.501-5.157c0-2.604-0.783-4.555-2.354-5.857
					C6588.577,728.72,6586.523,728.071,6583.99,728.071z"/>
			</g>
		</g>
	</g>
	<g>
		<path fill="#FFFFFF" d="M6479.075,232.12l-70.304-103.098l66.564-45.389l70.3,103.107L6479.075,232.12z M6428.53,132.753
			l54.285,79.618l43.062-29.369l-54.28-79.604L6428.53,132.753z"/>
		<path fill="#FFFFFF" d="M5943.251,598.64l-70.298-103.093l66.562-45.383l70.295,103.097L5943.251,598.64z M5892.707,499.287
			l54.284,79.604l43.065-29.369l-54.28-79.604L5892.707,499.287z"/>
		<path fill="#FFFFFF" d="M5854.088,638.041l-45.891-67.306l43.861-29.902l45.882,67.302L5854.088,638.041z M5822.832,573.511
			l34.023,49.888l26.45-18.03l-34.018-49.896L5822.832,573.511z"/>
		<path fill="#FFFFFF" d="M6565.258,149.175l-45.888-67.306l43.854-29.902l45.883,67.301L6565.258,149.175z M6534.003,84.645
			l34.022,49.888l26.449-18.03l-34.017-49.896L6534.003,84.645z"/>
		<path fill="#FFFFFF" d="M6056.905,252.063c0,24.23-19.639,43.864-43.861,43.864c-24.227,0-43.861-19.634-43.861-43.864
			c0-24.229,19.635-43.858,43.861-43.858C6037.266,208.205,6056.905,227.834,6056.905,252.063z"/>
		<path fill="#FFFFFF" d="M6004.069,199.836c0.24-11.992,3.406-22.279,9.889-30.244c9.814-12.062,26.22-18.169,48.758-18.169
			c13.712,0,28.952,2.284,45.208,6.515l-0.009-0.056l10.551-7.85c-20.156-5.913-39.017-9.143-55.75-9.143
			c-25.5,0-45.19,7.627-56.933,22.057c-8.636,10.616-12.608,24.193-12.432,39.897
			C5996.765,201.477,6000.348,200.476,6004.069,199.836z"/>
		<path fill="#FFFFFF" d="M6405.466,209.498c-41.717-58.132-110.292-92.839-183.428-92.839c-49.872,0-97.938,15.589-139.003,45.073
			c-17.409,12.488-32.783,27.006-46,43.085c4.134,2.108,7.943,4.736,11.367,7.808c12.293-14.795,26.551-28.178,42.641-39.73
			c38.715-27.803,84.014-42.501,130.995-42.501c68.719,0,133.119,32.571,172.266,87.121c33.168,46.203,45.754,103.004,35.43,159.931
			c-10.324,57.015-42.376,107.328-90.238,141.683c-38.739,27.794-84.039,42.483-131.011,42.483c0,0-0.01,0-0.019,0
			c-68.731,0-133.11-32.562-172.244-87.097c-33.159-46.219-45.749-103.02-35.435-159.95c0.636-3.508,1.358-6.988,2.16-10.449
			c-4.602-0.886-8.967-2.405-13.068-4.402c-0.968,4.097-1.859,8.226-2.611,12.4c-10.982,60.623,2.436,121.146,37.792,170.408
			c41.711,58.126,110.263,92.819,183.406,92.834c0.009,0,0.014,0,0.019,0c49.854,0,97.935-15.588,139.027-45.064
			c33.392-23.967,59.535-55.276,76.643-91.119c3.161-6.631,6.015-13.42,8.545-20.342c4.597-12.562,8.137-25.565,10.557-38.934
			C6454.248,319.277,6440.827,258.755,6405.466,209.498z"/>
		<path fill="#FFFFFF" d="M6425.953,435.284c9.223,28.512,8.11,51.82-3.79,66.443c-9.811,12.067-26.203,18.175-48.743,18.175h-0.005
			c-57.945,0-142.666-39.638-221.104-103.455c-46.776-38.066-85.045-80.243-111.017-119.57c-3.146,1.992-6.514,3.647-10.071,4.954
			c26.392,40.143,65.544,82.991,114.442,122.791c80.229,65.267,167.491,105.812,227.749,105.812c0,0,0,0,0.005,0
			c25.495,0,45.175-7.623,56.917-22.052c16.033-19.712,16.367-50.217,1.585-87.495
			C6430.086,425.757,6428.103,430.562,6425.953,435.284z"/>
	</g>
</g>
<g>
	<g>
		<g>
			<g>
				<path fill="#211357" d="M1364.094,919.238v25.728H1260.7V781.383h29.744v137.855H1364.094z"/>
				<path fill="#211357" d="M1435.853,818.443c9.444,0,17.386,1.177,23.841,3.542c6.455,2.357,11.607,5.662,15.465,9.911
					c3.854,4.249,6.606,9.405,8.26,15.462c1.656,6.062,2.48,12.712,2.48,19.945v74.831c-4.408,0.945-11.057,2.09-19.949,3.425
					c-8.893,1.334-18.924,2.001-30.097,2.001c-7.396,0-14.161-0.704-20.3-2.122c-6.135-1.419-11.372-3.698-15.695-6.845
					c-4.333-3.146-7.715-7.238-10.152-12.274c-2.441-5.032-3.656-11.252-3.656-18.646c0-7.086,1.376-13.062,4.129-17.941
					c2.753-4.875,6.491-8.851,11.214-11.92c4.722-3.071,10.185-5.271,16.403-6.611c6.214-1.334,12.705-2.006,19.477-2.006
					c3.145,0,6.449,0.198,9.916,0.592c3.456,0.39,7.154,1.057,11.093,2.003v-4.718c0-3.31-0.394-6.45-1.182-9.444
					c-0.788-2.987-2.163-5.624-4.129-7.908c-1.97-2.275-4.569-4.046-7.788-5.311c-3.23-1.257-7.285-1.886-12.16-1.886
					c-6.607,0-12.668,0.472-18.174,1.412c-5.514,0.945-10,2.049-13.456,3.304l-3.541-23.132c3.62-1.256,8.888-2.516,15.815-3.776
					C1420.589,819.074,1427.986,818.443,1435.853,818.443z M1438.217,924.901c8.809,0,15.494-0.473,20.063-1.419v-31.63
					c-1.575-0.473-3.86-0.94-6.849-1.412c-2.989-0.474-6.292-0.709-9.912-0.709c-3.15,0-6.338,0.235-9.559,0.709
					c-3.229,0.472-6.141,1.338-8.735,2.594c-2.595,1.261-4.685,3.035-6.255,5.311c-1.575,2.284-2.358,5.158-2.358,8.619
					c0,6.766,2.122,11.445,6.37,14.045C1425.232,923.604,1430.975,924.901,1438.217,924.901z"/>
				<path fill="#211357" d="M1523.426,883.354c0-9.124,1.419-17.658,4.251-25.61c2.831-7.942,6.882-14.828,12.157-20.654
					c5.27-5.819,11.684-10.389,19.236-13.688c7.553-3.307,16.051-4.958,25.495-4.958c11.646,0,22.66,2.123,33.048,6.372
					l-6.139,23.369c-3.305-1.418-7.045-2.595-11.211-3.541c-4.174-0.944-8.617-1.419-13.34-1.419c-11.172,0-19.67,3.51-25.49,10.506
					c-5.824,7.007-8.735,16.88-8.735,29.624c0,12.279,2.754,21.997,8.263,29.156c5.506,7.163,14.791,10.741,27.854,10.741
					c4.875,0,9.681-0.473,14.397-1.419c4.723-0.944,8.813-2.121,12.274-3.539l4.014,23.604c-3.146,1.575-7.906,2.993-14.282,4.249
					c-6.37,1.255-12.942,1.886-19.706,1.886c-10.547,0-19.713-1.612-27.503-4.838c-7.788-3.225-14.243-7.706-19.355-13.456
					c-5.115-5.741-8.934-12.586-11.45-20.537C1524.688,901.26,1523.426,892.645,1523.426,883.354z"/>
				<path fill="#211357" d="M1752.397,941.189c-5.508,1.418-12.668,2.872-21.477,4.37c-8.818,1.49-18.494,2.241-29.037,2.241
					c-9.916,0-18.215-1.417-24.9-4.253c-6.691-2.831-12.039-6.762-16.051-11.798c-4.014-5.037-6.887-11.057-8.619-18.062
					c-1.734-6.997-2.596-14.671-2.596-23.012v-69.163h28.562v64.679c0,13.215,1.922,22.658,5.783,28.325
					c3.855,5.668,10.578,8.498,20.18,8.498c3.463,0,7.123-0.156,10.977-0.472c3.855-0.315,6.73-0.71,8.615-1.182v-99.849h28.562
					V941.189z"/>
				<path fill="#211357" d="M1798.194,825.524c5.51-1.57,12.67-3.067,21.482-4.485c8.812-1.419,18.568-2.122,29.271-2.122
					c10.068,0,18.488,1.376,25.258,4.128c6.762,2.758,12.154,6.608,16.168,11.566c4.014,4.959,6.846,10.941,8.498,17.942
					c1.654,7.003,2.48,14.676,2.48,23.017v69.396h-28.564V880.05c0-6.606-0.436-12.232-1.297-16.875
					c-0.865-4.639-2.283-8.415-4.248-11.33c-1.969-2.909-4.643-5.037-8.025-6.377c-3.389-1.334-7.518-2.001-12.396-2.001
					c-3.619,0-7.395,0.232-11.33,0.704c-3.934,0.473-6.844,0.866-8.734,1.182v99.613h-28.562V825.524z"/>
				<path fill="#211357" d="M1986.793,818.443c9.445,0,17.387,1.177,23.842,3.542c6.455,2.357,11.607,5.662,15.463,9.911
					c3.854,4.249,6.607,9.405,8.262,15.462c1.654,6.062,2.479,12.712,2.479,19.945v74.831c-4.406,0.945-11.057,2.09-19.947,3.425
					c-8.893,1.334-18.926,2.001-30.098,2.001c-7.395,0-14.16-0.704-20.299-2.122c-6.137-1.419-11.373-3.698-15.697-6.845
					c-4.332-3.146-7.715-7.238-10.15-12.274c-2.443-5.032-3.658-11.252-3.658-18.646c0-7.086,1.377-13.062,4.129-17.941
					c2.754-4.875,6.492-8.851,11.215-11.92c4.723-3.071,10.186-5.271,16.402-6.611c6.215-1.334,12.707-2.006,19.477-2.006
					c3.146,0,6.451,0.198,9.918,0.592c3.455,0.39,7.154,1.057,11.092,2.003v-4.718c0-3.31-0.393-6.45-1.182-9.444
					c-0.787-2.987-2.164-5.624-4.129-7.908c-1.969-2.275-4.568-4.046-7.789-5.311c-3.23-1.257-7.285-1.886-12.16-1.886
					c-6.607,0-12.668,0.472-18.172,1.412c-5.516,0.945-10.002,2.049-13.457,3.304l-3.541-23.132
					c3.621-1.256,8.889-2.516,15.816-3.776C1971.53,819.074,1978.924,818.443,1986.793,818.443z M1989.157,924.901
					c8.809,0,15.496-0.473,20.064-1.419v-31.63c-1.574-0.473-3.859-0.94-6.848-1.412c-2.99-0.474-6.295-0.709-9.912-0.709
					c-3.15,0-6.34,0.235-9.559,0.709c-3.232,0.472-6.141,1.338-8.736,2.594c-2.594,1.261-4.684,3.035-6.256,5.311
					c-1.576,2.284-2.357,5.158-2.357,8.619c0,6.766,2.121,11.445,6.371,14.045C1976.172,923.604,1981.915,924.901,1989.157,924.901z
					"/>
			</g>
		</g>
	</g>
	<g>
		<linearGradient id="SVGID_9_" gradientUnits="userSpaceOnUse" x1="1841.8481" y1="157.877" x2="1978.7134" y2="157.877">
			<stop  offset="0.3988" style="stop-color:#7B35C6"/>
			<stop  offset="0.5806" style="stop-color:#7834C5"/>
			<stop  offset="0.7114" style="stop-color:#6F33C0"/>
			<stop  offset="0.8263" style="stop-color:#5F2FB8"/>
			<stop  offset="0.9313" style="stop-color:#492BAD"/>
			<stop  offset="1" style="stop-color:#3627A3"/>
		</linearGradient>
		<path fill="url(#SVGID_9_)" d="M1912.153,232.12l-70.305-103.098l66.564-45.389l70.301,103.107L1912.153,232.12z
			 M1861.608,132.753l54.285,79.618l43.061-29.369l-54.279-79.604L1861.608,132.753z"/>
		<linearGradient id="SVGID_10_" gradientUnits="userSpaceOnUse" x1="1306.0317" y1="524.4023" x2="1442.8872" y2="524.4023">
			<stop  offset="0.3988" style="stop-color:#7B35C6"/>
			<stop  offset="0.5806" style="stop-color:#7834C5"/>
			<stop  offset="0.7114" style="stop-color:#6F33C0"/>
			<stop  offset="0.8263" style="stop-color:#5F2FB8"/>
			<stop  offset="0.9313" style="stop-color:#492BAD"/>
			<stop  offset="1" style="stop-color:#3627A3"/>
		</linearGradient>
		<path fill="url(#SVGID_10_)" d="M1376.329,598.64l-70.297-103.093l66.561-45.383l70.295,103.097L1376.329,598.64z
			 M1325.784,499.287l54.285,79.604l43.064-29.369l-54.28-79.604L1325.784,499.287z"/>
		<linearGradient id="SVGID_11_" gradientUnits="userSpaceOnUse" x1="1241.2759" y1="589.4375" x2="1331.0181" y2="589.4375">
			<stop  offset="0.3988" style="stop-color:#7B35C6"/>
			<stop  offset="0.5806" style="stop-color:#7834C5"/>
			<stop  offset="0.7114" style="stop-color:#6F33C0"/>
			<stop  offset="0.8263" style="stop-color:#5F2FB8"/>
			<stop  offset="0.9313" style="stop-color:#492BAD"/>
			<stop  offset="1" style="stop-color:#3627A3"/>
		</linearGradient>
		<path fill="url(#SVGID_11_)" d="M1287.167,638.041l-45.891-67.306l43.861-29.902l45.881,67.302L1287.167,638.041z
			 M1255.909,573.511l34.023,49.888l26.451-18.03l-34.018-49.896L1255.909,573.511z"/>
		<linearGradient id="SVGID_12_" gradientUnits="userSpaceOnUse" x1="1952.4478" y1="100.5708" x2="2042.186" y2="100.5708">
			<stop  offset="0.3988" style="stop-color:#7B35C6"/>
			<stop  offset="0.5806" style="stop-color:#7834C5"/>
			<stop  offset="0.7114" style="stop-color:#6F33C0"/>
			<stop  offset="0.8263" style="stop-color:#5F2FB8"/>
			<stop  offset="0.9313" style="stop-color:#492BAD"/>
			<stop  offset="1" style="stop-color:#3627A3"/>
		</linearGradient>
		<path fill="url(#SVGID_12_)" d="M1998.336,149.175l-45.889-67.306l43.855-29.902l45.883,67.301L1998.336,149.175z
			 M1967.081,84.645l34.023,49.888l26.449-18.03l-34.018-49.896L1967.081,84.645z"/>
		<linearGradient id="SVGID_13_" gradientUnits="userSpaceOnUse" x1="1402.2603" y1="252.0664" x2="1489.9829" y2="252.0664">
			<stop  offset="0.3988" style="stop-color:#7B35C6"/>
			<stop  offset="0.5806" style="stop-color:#7834C5"/>
			<stop  offset="0.7114" style="stop-color:#6F33C0"/>
			<stop  offset="0.8263" style="stop-color:#5F2FB8"/>
			<stop  offset="0.9313" style="stop-color:#492BAD"/>
			<stop  offset="1" style="stop-color:#3627A3"/>
		</linearGradient>
		<path fill="url(#SVGID_13_)" d="M1489.983,252.063c0,24.23-19.639,43.864-43.861,43.864c-24.228,0-43.861-19.634-43.861-43.864
			c0-24.229,19.634-43.858,43.861-43.858C1470.344,208.205,1489.983,227.834,1489.983,252.063z"/>
		<linearGradient id="SVGID_14_" gradientUnits="userSpaceOnUse" x1="1426.4224" y1="171.8667" x2="1551.5435" y2="171.8667">
			<stop  offset="0.3988" style="stop-color:#7B35C6"/>
			<stop  offset="0.5806" style="stop-color:#7834C5"/>
			<stop  offset="0.7114" style="stop-color:#6F33C0"/>
			<stop  offset="0.8263" style="stop-color:#5F2FB8"/>
			<stop  offset="0.9313" style="stop-color:#492BAD"/>
			<stop  offset="1" style="stop-color:#3627A3"/>
		</linearGradient>
		<path fill="url(#SVGID_14_)" d="M1437.147,199.836c0.24-11.992,3.406-22.279,9.889-30.244
			c9.814-12.062,26.219-18.169,48.758-18.169c13.711,0,28.951,2.284,45.207,6.515l-0.008-0.056l10.551-7.85
			c-20.157-5.913-39.018-9.143-55.75-9.143c-25.5,0-45.191,7.627-56.934,22.057c-8.636,10.616-12.607,24.193-12.432,39.897
			C1429.842,201.477,1433.425,200.476,1437.147,199.836z"/>
		<linearGradient id="SVGID_15_" gradientUnits="userSpaceOnUse" x1="1416.6099" y1="346.0073" x2="1880.0747" y2="346.0073">
			<stop  offset="0.3988" style="stop-color:#7B35C6"/>
			<stop  offset="0.5806" style="stop-color:#7834C5"/>
			<stop  offset="0.7114" style="stop-color:#6F33C0"/>
			<stop  offset="0.8263" style="stop-color:#5F2FB8"/>
			<stop  offset="0.9313" style="stop-color:#492BAD"/>
			<stop  offset="1" style="stop-color:#3627A3"/>
		</linearGradient>
		<path fill="url(#SVGID_15_)" d="M1838.543,209.498c-41.717-58.132-110.291-92.839-183.428-92.839
			c-49.871,0-97.938,15.589-139.002,45.073c-17.41,12.488-32.784,27.006-46,43.085c4.133,2.108,7.942,4.736,11.367,7.808
			c12.293-14.795,26.551-28.178,42.64-39.73c38.716-27.803,84.015-42.501,130.995-42.501c68.719,0,133.119,32.571,172.266,87.121
			c33.168,46.203,45.754,103.004,35.43,159.931c-10.324,57.015-42.375,107.328-90.238,141.683
			c-38.738,27.794-84.039,42.483-131.01,42.483c0,0-0.01,0-0.02,0c-68.73,0-133.109-32.562-172.244-87.097
			c-33.158-46.219-45.748-103.02-35.434-159.95c0.635-3.508,1.357-6.988,2.16-10.449c-4.602-0.886-8.968-2.405-13.068-4.402
			c-0.969,4.097-1.86,8.226-2.611,12.4c-10.982,60.623,2.436,121.146,37.791,170.408c41.711,58.126,110.264,92.819,183.406,92.834
			c0.01,0,0.014,0,0.02,0c49.854,0,97.934-15.588,139.027-45.064c33.391-23.967,59.535-55.276,76.643-91.119
			c3.16-6.631,6.014-13.42,8.545-20.342c4.596-12.562,8.137-25.565,10.557-38.934
			C1887.325,319.277,1873.905,258.755,1838.543,209.498z"/>
		<linearGradient id="SVGID_16_" gradientUnits="userSpaceOnUse" x1="1464.3003" y1="413.6558" x2="1875.7739" y2="413.6558">
			<stop  offset="0.3988" style="stop-color:#7B35C6"/>
			<stop  offset="0.5806" style="stop-color:#7834C5"/>
			<stop  offset="0.7114" style="stop-color:#6F33C0"/>
			<stop  offset="0.8263" style="stop-color:#5F2FB8"/>
			<stop  offset="0.9313" style="stop-color:#492BAD"/>
			<stop  offset="1" style="stop-color:#3627A3"/>
		</linearGradient>
		<path fill="url(#SVGID_16_)" d="M1859.03,435.284c9.223,28.512,8.111,51.82-3.789,66.443
			c-9.811,12.067-26.203,18.175-48.744,18.175h-0.004c-57.945,0-142.666-39.638-221.104-103.455
			c-46.777-38.066-85.045-80.243-111.018-119.57c-3.146,1.992-6.514,3.647-10.071,4.954
			c26.392,40.143,65.544,82.991,114.442,122.791c80.229,65.267,167.492,105.812,227.75,105.812c0,0,0,0,0.004,0
			c25.496,0,45.176-7.623,56.918-22.052c16.033-19.712,16.367-50.217,1.584-87.495
			C1863.165,425.757,1861.18,430.562,1859.03,435.284z"/>
	</g>
</g>
<g>
	<path fill="#211357" d="M1667.115,727.804c2.77-0.779,5.721-1.473,8.85-2.08c3.123-0.599,6.215-0.9,9.272-0.9
		c2.562,0,4.975,0.267,7.242,0.801c2.283,0.529,4.271,1.474,5.974,2.823c1.704,1.351,3.054,3.131,4.053,5.336
		c0.989,2.206,1.488,4.945,1.488,8.216c0,1.854-0.142,3.753-0.426,5.712c-0.287,1.957-0.677,3.927-1.171,5.926l-6.621,27.425h-6.915
		l5.87-24.549c0.563-2.342,1.087-4.733,1.548-7.146c0.46-2.417,0.728-4.731,0.8-6.938c0-2.206-0.34-4.02-1.018-5.445
		c-0.673-1.419-1.599-2.56-2.769-3.411c-1.18-0.856-2.543-1.461-4.11-1.815c-1.57-0.356-3.2-0.535-4.904-0.535
		c-1.853,0-3.736,0.144-5.654,0.427c-1.925,0.286-3.809,0.643-5.653,1.067l-11.636,48.346h-6.914L1667.115,727.804z"/>
	<path fill="#211357" d="M1761.42,738.799c0,3.986-0.98,7.221-2.934,9.707c-1.957,2.498-4.697,4.472-8.22,5.93
		c-3.521,1.455-7.752,2.509-12.698,3.146c-4.946,0.643-10.44,1.108-16.483,1.385v2.245c0,2.063,0.212,3.986,0.638,5.762
		c0.426,1.779,1.207,3.324,2.349,4.644c1.132,1.32,2.721,2.364,4.741,3.146c2.034,0.785,4.646,1.178,7.846,1.178
		c2.492,0,4.998-0.358,7.526-1.069c2.527-0.713,4.926-1.775,7.205-3.201l0.743,6.4c-2.414,1.354-5.09,2.405-7.998,3.155
		c-2.922,0.741-5.875,1.113-8.861,1.113c-3.913,0-7.201-0.5-9.872-1.493c-2.67-0.994-4.836-2.384-6.509-4.16
		c-1.67-1.78-2.862-3.912-3.575-6.403c-0.711-2.493-1.063-5.228-1.063-8.22c0-4.551,0.688-9.071,2.078-13.557
		c1.389-4.475,3.432-8.495,6.132-12.052c2.71-3.561,6.034-6.424,9.985-8.59c3.947-2.169,8.443-3.26,13.497-3.26
		c4.979,0,8.806,1.297,11.473,3.897C1760.083,731.1,1761.42,734.531,1761.42,738.799z M1745.308,730.901
		c-2.849,0-5.514,0.587-8.007,1.765c-2.488,1.172-4.732,2.755-6.722,4.743c-1.992,1.998-3.719,4.308-5.178,6.938
		c-1.457,2.637-2.547,5.41-3.253,8.322c6.048-0.143,11.131-0.533,15.26-1.166c4.125-0.643,7.448-1.533,9.981-2.676
		c2.521-1.133,4.323-2.503,5.386-4.099c1.068-1.608,1.602-3.438,1.602-5.5c0-2.775-0.834-4.857-2.512-6.247
		C1750.198,731.598,1748.008,730.901,1745.308,730.901z"/>
	<path fill="#211357" d="M1781.203,709.666l7.244-1.282l-4.108,17.509h19.449l-1.393,5.972h-19.61l-6.504,26.997
		c-0.359,1.282-0.662,2.652-0.91,4.111c-0.252,1.459-0.377,2.902-0.377,4.321c0,3.2,0.786,5.445,2.36,6.727
		c1.566,1.275,3.532,1.92,5.891,1.92c2.286,0,4.27-0.248,5.943-0.754c1.684-0.493,3.452-1.166,5.307-2.021l0.648,6.296
		c-1.928,0.787-4.085,1.46-6.473,2.032c-2.389,0.559-4.76,0.846-7.113,0.846c-1.854,0-3.604-0.214-5.241-0.638
		c-1.646-0.425-3.086-1.139-4.338-2.136c-1.247-0.995-2.245-2.31-2.99-3.946c-0.747-1.638-1.123-3.701-1.123-6.188
		c0-3.066,0.499-6.577,1.498-10.569L1781.203,709.666z"/>
	<path fill="#211357" d="M1822.36,781.062h-7.227c-1.509-7.828-2.708-16.397-3.601-25.716c-0.89-9.326-1.41-19.143-1.553-29.453
		h6.829c0.068,3.763,0.213,7.871,0.425,12.316c0.218,4.452,0.502,8.878,0.856,13.295c0.356,4.404,0.752,8.57,1.172,12.481
		c0.431,3.912,0.925,7.187,1.494,9.818c2.273-3.201,4.609-6.757,6.992-10.674c2.377-3.905,4.66-7.98,6.83-12.214
		c2.171-4.234,4.198-8.487,6.083-12.759c1.885-4.27,3.472-8.359,4.748-12.265h7.157c0,3.484,0.082,7.288,0.265,11.412
		c0.169,4.125,0.4,8.325,0.688,12.596s0.625,8.468,1.014,12.592c0.392,4.125,0.836,7.897,1.34,11.312
		c1.702-1.921,3.786-4.817,6.242-8.7c2.452-3.872,4.926-8.11,7.413-12.699c2.487-4.585,4.823-9.229,6.992-13.921
		c2.167-4.7,3.789-8.898,4.857-12.591h6.829c-1.64,5.262-3.772,10.651-6.405,16.159c-2.635,5.521-5.424,10.743-8.377,15.693
		c-2.953,4.939-5.888,9.461-8.807,13.55c-2.914,4.091-5.476,7.349-7.68,9.767h-7.229c-0.725-6.26-1.406-13.021-2.044-20.274
		c-0.65-7.262-1.044-14.412-1.188-21.456c-1.419,3.351-3.077,6.927-4.965,10.729c-1.885,3.808-3.888,7.575-6.027,11.31
		c-2.134,3.734-4.322,7.31-6.562,10.729C1826.687,775.514,1824.495,778.496,1822.36,781.062z"/>
	<path fill="#211357" d="M1937.079,743.175c0,6.688-0.943,12.486-2.824,17.395c-1.889,4.909-4.307,8.984-7.261,12.22
		c-2.958,3.238-6.228,5.639-9.821,7.206c-3.589,1.562-7.131,2.344-10.618,2.344c-2.487,0-4.854-0.392-7.096-1.179
		c-2.236-0.774-4.216-1.952-5.921-3.51c-1.711-1.567-3.061-3.512-4.06-5.821c-0.995-2.309-1.49-5-1.49-8.062
		c0-6.686,0.941-12.481,2.823-17.393c1.885-4.909,4.31-8.966,7.262-12.167c2.953-3.199,6.223-5.581,9.817-7.15
		c3.59-1.567,7.136-2.344,10.616-2.344c2.494,0,4.862,0.386,7.097,1.179c2.247,0.776,4.221,1.951,5.927,3.516
		c1.705,1.566,3.055,3.507,4.055,5.814C1936.58,737.532,1937.079,740.184,1937.079,743.175z M1895.034,763.344
		c0,4.199,1.17,7.364,3.521,9.501c2.349,2.131,5.156,3.204,8.431,3.204c2.557,0,5.188-0.663,7.899-1.979
		c2.7-1.315,5.172-3.311,7.417-5.976c2.235-2.664,4.09-6.032,5.549-10.083c1.453-4.06,2.186-8.822,2.186-14.302
		c0-4.199-1.176-7.363-3.522-9.502c-2.343-2.129-5.159-3.199-8.431-3.199c-2.562,0-5.198,0.658-7.899,1.974
		c-2.704,1.317-5.177,3.31-7.416,5.973c-2.235,2.671-4.09,6.035-5.545,10.086C1895.759,753.101,1895.034,757.868,1895.034,763.344z"
		/>
	<path fill="#211357" d="M1955.155,728.339c2.693-1.067,5.661-1.957,8.9-2.664c3.229-0.714,6.409-1.07,9.535-1.07
		c1.633,0,3.195,0.109,4.688,0.321c1.488,0.214,2.914,0.564,4.258,1.063l-1.81,6.302c-2.77-0.855-5.614-1.282-8.532-1.282
		c-1.844,0-3.698,0.146-5.542,0.427c-1.851,0.287-3.695,0.716-5.547,1.28l-11.635,48.346h-6.914L1955.155,728.339z"/>
	<path fill="#211357" d="M2001.251,699.522l7.239-1.276l-12.285,50.959c2.563-1.702,5.178-3.636,7.844-5.807
		c2.668-2.156,5.228-4.328,7.682-6.494c2.452-2.16,4.673-4.218,6.665-6.177c1.993-1.948,3.556-3.565,4.697-4.835h8.434
		c-1.286,1.625-3.115,3.613-5.494,5.958c-2.39,2.345-4.911,4.722-7.577,7.137c-2.664,2.407-5.298,4.667-7.893,6.76
		c-2.592,2.096-4.744,3.641-6.449,4.635c2.415,1.849,4.776,4.025,7.092,6.518c2.31,2.497,4.427,5.132,6.346,7.912
		c1.918,2.779,3.639,5.578,5.173,8.394c1.521,2.813,2.714,5.43,3.568,7.856h-7.466c-3.122-6.703-6.67-12.456-10.643-17.269
		c-3.978-4.809-8.16-8.709-12.562-11.706l-7.092,28.975h-6.913L2001.251,699.522z"/>
</g>
<g>
	<g>
		<g>
			<g>
				<path fill="#FFFFFF" d="M7072.747,919.238v25.728h-103.395V781.383h29.744v137.855H7072.747z"/>
				<path fill="#FFFFFF" d="M7144.504,818.443c9.445,0,17.387,1.177,23.842,3.542c6.455,2.357,11.607,5.662,15.465,9.911
					c3.854,4.249,6.605,9.405,8.26,15.462c1.656,6.062,2.48,12.712,2.48,19.945v74.831c-4.408,0.945-11.057,2.09-19.949,3.425
					c-8.893,1.334-18.924,2.001-30.098,2.001c-7.395,0-14.16-0.704-20.299-2.122c-6.135-1.419-11.373-3.698-15.695-6.845
					c-4.334-3.146-7.715-7.238-10.152-12.274c-2.441-5.032-3.656-11.252-3.656-18.646c0-7.086,1.375-13.062,4.129-17.941
					c2.752-4.875,6.49-8.851,11.213-11.92c4.723-3.071,10.186-5.271,16.404-6.611c6.213-1.334,12.705-2.006,19.477-2.006
					c3.145,0,6.449,0.198,9.916,0.592c3.455,0.39,7.154,1.057,11.092,2.003v-4.718c0-3.31-0.393-6.45-1.182-9.444
					c-0.787-2.987-2.162-5.624-4.129-7.908c-1.969-2.275-4.568-4.046-7.787-5.311c-3.23-1.257-7.285-1.886-12.16-1.886
					c-6.607,0-12.668,0.472-18.174,1.412c-5.514,0.945-10,2.049-13.457,3.304l-3.541-23.132c3.621-1.256,8.889-2.516,15.816-3.776
					C7129.241,819.074,7136.637,818.443,7144.504,818.443z M7146.87,924.901c8.809,0,15.494-0.473,20.062-1.419v-31.63
					c-1.574-0.473-3.859-0.94-6.848-1.412c-2.99-0.474-6.293-0.709-9.912-0.709c-3.15,0-6.338,0.235-9.559,0.709
					c-3.23,0.472-6.141,1.338-8.736,2.594c-2.594,1.261-4.684,3.035-6.254,5.311c-1.576,2.284-2.359,5.158-2.359,8.619
					c0,6.766,2.123,11.445,6.371,14.045C7133.883,923.604,7139.627,924.901,7146.87,924.901z"/>
				<path fill="#FFFFFF" d="M7232.079,883.354c0-9.124,1.418-17.658,4.25-25.61c2.832-7.942,6.883-14.828,12.158-20.654
					c5.27-5.819,11.684-10.389,19.236-13.688c7.553-3.307,16.051-4.958,25.494-4.958c11.646,0,22.66,2.123,33.049,6.372
					l-6.139,23.369c-3.305-1.418-7.045-2.595-11.211-3.541c-4.174-0.944-8.617-1.419-13.34-1.419c-11.172,0-19.67,3.51-25.49,10.506
					c-5.824,7.007-8.736,16.88-8.736,29.624c0,12.279,2.754,21.997,8.264,29.156c5.506,7.163,14.791,10.741,27.854,10.741
					c4.875,0,9.68-0.473,14.396-1.419c4.723-0.944,8.814-2.121,12.275-3.539l4.014,23.604c-3.146,1.575-7.906,2.993-14.283,4.249
					c-6.369,1.255-12.941,1.886-19.705,1.886c-10.547,0-19.713-1.612-27.504-4.838c-7.787-3.225-14.242-7.706-19.355-13.456
					c-5.115-5.741-8.934-12.586-11.449-20.537C7233.34,901.26,7232.079,892.645,7232.079,883.354z"/>
				<path fill="#FFFFFF" d="M7461.049,941.189c-5.508,1.418-12.668,2.872-21.477,4.37c-8.818,1.49-18.494,2.241-29.037,2.241
					c-9.916,0-18.215-1.417-24.9-4.253c-6.691-2.831-12.039-6.762-16.051-11.798c-4.014-5.037-6.887-11.057-8.619-18.062
					c-1.734-6.997-2.596-14.671-2.596-23.012v-69.163h28.562v64.679c0,13.215,1.922,22.658,5.783,28.325
					c3.855,5.668,10.578,8.498,20.18,8.498c3.463,0,7.123-0.156,10.977-0.472c3.855-0.315,6.73-0.71,8.615-1.182v-99.849h28.562
					V941.189z"/>
				<path fill="#FFFFFF" d="M7506.846,825.524c5.51-1.57,12.67-3.067,21.482-4.485c8.812-1.419,18.568-2.122,29.271-2.122
					c10.068,0,18.488,1.376,25.258,4.128c6.762,2.758,12.154,6.608,16.168,11.566c4.014,4.959,6.846,10.941,8.498,17.942
					c1.654,7.003,2.48,14.676,2.48,23.017v69.396h-28.564V880.05c0-6.606-0.436-12.232-1.297-16.875
					c-0.865-4.639-2.283-8.415-4.248-11.33c-1.969-2.909-4.643-5.037-8.025-6.377c-3.389-1.334-7.518-2.001-12.396-2.001
					c-3.619,0-7.395,0.232-11.33,0.704c-3.934,0.473-6.844,0.866-8.734,1.182v99.613h-28.562V825.524z"/>
				<path fill="#FFFFFF" d="M7695.446,818.443c9.445,0,17.387,1.177,23.842,3.542c6.455,2.357,11.607,5.662,15.463,9.911
					c3.854,4.249,6.607,9.405,8.262,15.462c1.654,6.062,2.479,12.712,2.479,19.945v74.831c-4.406,0.945-11.057,2.09-19.947,3.425
					c-8.893,1.334-18.926,2.001-30.098,2.001c-7.395,0-14.16-0.704-20.299-2.122c-6.137-1.419-11.373-3.698-15.697-6.845
					c-4.332-3.146-7.715-7.238-10.15-12.274c-2.443-5.032-3.658-11.252-3.658-18.646c0-7.086,1.377-13.062,4.129-17.941
					c2.754-4.875,6.492-8.851,11.215-11.92c4.723-3.071,10.186-5.271,16.402-6.611c6.215-1.334,12.707-2.006,19.477-2.006
					c3.146,0,6.451,0.198,9.918,0.592c3.455,0.39,7.154,1.057,11.092,2.003v-4.718c0-3.31-0.393-6.45-1.182-9.444
					c-0.787-2.987-2.164-5.624-4.129-7.908c-1.969-2.275-4.568-4.046-7.789-5.311c-3.23-1.257-7.285-1.886-12.16-1.886
					c-6.607,0-12.668,0.472-18.172,1.412c-5.516,0.945-10.002,2.049-13.457,3.304l-3.541-23.132
					c3.621-1.256,8.889-2.516,15.816-3.776C7680.182,819.074,7687.577,818.443,7695.446,818.443z M7697.809,924.901
					c8.809,0,15.496-0.473,20.064-1.419v-31.63c-1.574-0.473-3.859-0.94-6.848-1.412c-2.99-0.474-6.295-0.709-9.912-0.709
					c-3.15,0-6.34,0.235-9.559,0.709c-3.232,0.472-6.141,1.338-8.736,2.594c-2.594,1.261-4.684,3.035-6.256,5.311
					c-1.576,2.284-2.357,5.158-2.357,8.619c0,6.766,2.121,11.445,6.371,14.045C7684.825,923.604,7690.567,924.901,7697.809,924.901z
					"/>
			</g>
		</g>
	</g>
	<g>
		<path fill="#FFFFFF" d="M7620.805,232.12L7550.5,129.022l66.564-45.389l70.301,103.107L7620.805,232.12z M7570.26,132.753
			l54.285,79.618l43.061-29.369l-54.279-79.604L7570.26,132.753z"/>
		<path fill="#FFFFFF" d="M7084.981,598.64l-70.297-103.093l66.561-45.383l70.295,103.097L7084.981,598.64z M7034.436,499.287
			l54.285,79.604l43.064-29.369l-54.281-79.604L7034.436,499.287z"/>
		<path fill="#FFFFFF" d="M6995.819,638.041l-45.891-67.306l43.861-29.902l45.881,67.302L6995.819,638.041z M6964.561,573.511
			l34.023,49.888l26.451-18.03l-34.018-49.896L6964.561,573.511z"/>
		<path fill="#FFFFFF" d="M7706.989,149.175L7661.1,81.869l43.855-29.902l45.883,67.301L7706.989,149.175z M7675.733,84.645
			l34.023,49.888l26.449-18.03l-34.018-49.896L7675.733,84.645z"/>
		<path fill="#FFFFFF" d="M7198.635,252.063c0,24.23-19.639,43.864-43.861,43.864c-24.229,0-43.861-19.634-43.861-43.864
			c0-24.229,19.633-43.858,43.861-43.858C7178.997,208.205,7198.635,227.834,7198.635,252.063z"/>
		<path fill="#FFFFFF" d="M7145.799,199.836c0.24-11.992,3.406-22.279,9.889-30.244c9.814-12.062,26.219-18.169,48.758-18.169
			c13.711,0,28.951,2.284,45.207,6.515l-0.008-0.056l10.551-7.85c-20.158-5.913-39.018-9.143-55.75-9.143
			c-25.5,0-45.191,7.627-56.934,22.057c-8.637,10.616-12.607,24.193-12.432,39.897
			C7138.495,201.477,7142.077,200.476,7145.799,199.836z"/>
		<path fill="#FFFFFF" d="M7547.196,209.498c-41.717-58.132-110.291-92.839-183.428-92.839c-49.871,0-97.938,15.589-139.002,45.073
			c-17.41,12.488-32.785,27.006-46,43.085c4.133,2.108,7.941,4.736,11.367,7.808c12.293-14.795,26.551-28.178,42.639-39.73
			c38.717-27.803,84.016-42.501,130.996-42.501c68.719,0,133.119,32.571,172.266,87.121c33.168,46.203,45.754,103.004,35.43,159.931
			c-10.324,57.015-42.375,107.328-90.238,141.683c-38.738,27.794-84.039,42.483-131.01,42.483c0,0-0.01,0-0.02,0
			c-68.73,0-133.109-32.562-172.244-87.097c-33.158-46.219-45.748-103.02-35.434-159.95c0.635-3.508,1.357-6.988,2.16-10.449
			c-4.602-0.886-8.969-2.405-13.068-4.402c-0.969,4.097-1.861,8.226-2.611,12.4c-10.982,60.623,2.436,121.146,37.791,170.408
			c41.711,58.126,110.264,92.819,183.406,92.834c0.01,0,0.014,0,0.02,0c49.854,0,97.934-15.588,139.027-45.064
			c33.391-23.967,59.535-55.276,76.643-91.119c3.16-6.631,6.014-13.42,8.545-20.342c4.596-12.562,8.137-25.565,10.557-38.934
			C7595.977,319.277,7582.557,258.755,7547.196,209.498z"/>
		<path fill="#FFFFFF" d="M7567.682,435.284c9.223,28.512,8.111,51.82-3.789,66.443c-9.811,12.067-26.203,18.175-48.744,18.175
			h-0.004c-57.945,0-142.666-39.638-221.104-103.455c-46.777-38.066-85.045-80.243-111.018-119.57
			c-3.146,1.992-6.514,3.647-10.072,4.954c26.393,40.143,65.545,82.991,114.443,122.791
			c80.229,65.267,167.492,105.812,227.75,105.812c0,0,0,0,0.004,0c25.496,0,45.176-7.623,56.918-22.052
			c16.033-19.712,16.367-50.217,1.584-87.495C7571.817,425.757,7569.833,430.562,7567.682,435.284z"/>
	</g>
</g>
<g>
	<path fill="#FFFFFF" d="M7375.766,727.804c2.77-0.779,5.721-1.473,8.85-2.08c3.123-0.599,6.215-0.9,9.273-0.9
		c2.561,0,4.975,0.267,7.242,0.801c2.283,0.529,4.271,1.474,5.973,2.823c1.705,1.351,3.055,3.131,4.053,5.336
		c0.99,2.206,1.488,4.945,1.488,8.216c0,1.854-0.141,3.753-0.426,5.712c-0.287,1.957-0.676,3.927-1.17,5.926l-6.621,27.425h-6.916
		l5.871-24.549c0.562-2.342,1.086-4.733,1.547-7.146c0.461-2.417,0.729-4.731,0.801-6.938c0-2.206-0.34-4.02-1.018-5.445
		c-0.674-1.419-1.6-2.56-2.77-3.411c-1.18-0.856-2.543-1.461-4.109-1.815c-1.57-0.356-3.201-0.535-4.904-0.535
		c-1.854,0-3.736,0.144-5.654,0.427c-1.926,0.286-3.809,0.643-5.654,1.067l-11.635,48.346h-6.914L7375.766,727.804z"/>
	<path fill="#FFFFFF" d="M7470.073,738.799c0,3.986-0.98,7.221-2.934,9.707c-1.957,2.498-4.697,4.472-8.221,5.93
		c-3.52,1.455-7.752,2.509-12.697,3.146c-4.947,0.643-10.441,1.108-16.484,1.385v2.245c0,2.063,0.213,3.986,0.639,5.762
		c0.426,1.779,1.207,3.324,2.348,4.644c1.133,1.32,2.721,2.364,4.742,3.146c2.033,0.785,4.646,1.178,7.846,1.178
		c2.492,0,4.998-0.358,7.525-1.069c2.527-0.713,4.926-1.775,7.205-3.201l0.744,6.4c-2.414,1.354-5.09,2.405-7.998,3.155
		c-2.922,0.741-5.875,1.113-8.861,1.113c-3.914,0-7.201-0.5-9.873-1.493c-2.67-0.994-4.836-2.384-6.508-4.16
		c-1.67-1.78-2.863-3.912-3.576-6.403c-0.711-2.493-1.062-5.228-1.062-8.22c0-4.551,0.688-9.071,2.078-13.557
		c1.389-4.475,3.432-8.495,6.131-12.052c2.711-3.561,6.035-6.424,9.986-8.59c3.947-2.169,8.443-3.26,13.496-3.26
		c4.98,0,8.807,1.297,11.473,3.897C7468.735,731.1,7470.073,734.531,7470.073,738.799z M7453.959,730.901
		c-2.848,0-5.514,0.587-8.006,1.765c-2.488,1.172-4.732,2.755-6.723,4.743c-1.992,1.998-3.719,4.308-5.178,6.938
		c-1.457,2.637-2.547,5.41-3.252,8.322c6.047-0.143,11.131-0.533,15.26-1.166c4.125-0.643,7.447-1.533,9.98-2.676
		c2.521-1.133,4.324-2.503,5.387-4.099c1.068-1.608,1.602-3.438,1.602-5.5c0-2.775-0.834-4.857-2.512-6.247
		C7458.85,731.598,7456.661,730.901,7453.959,730.901z"/>
	<path fill="#FFFFFF" d="M7489.854,709.666l7.244-1.282l-4.107,17.509h19.449l-1.393,5.972h-19.611l-6.504,26.997
		c-0.359,1.282-0.662,2.652-0.91,4.111c-0.252,1.459-0.377,2.902-0.377,4.321c0,3.2,0.787,5.445,2.361,6.727
		c1.566,1.275,3.531,1.92,5.891,1.92c2.285,0,4.27-0.248,5.943-0.754c1.684-0.493,3.451-1.166,5.307-2.021l0.648,6.296
		c-1.928,0.787-4.086,1.46-6.473,2.032c-2.389,0.559-4.76,0.846-7.113,0.846c-1.854,0-3.605-0.214-5.242-0.638
		c-1.645-0.425-3.086-1.139-4.338-2.136c-1.246-0.995-2.244-2.31-2.99-3.946c-0.746-1.638-1.123-3.701-1.123-6.188
		c0-3.066,0.5-6.577,1.498-10.569L7489.854,709.666z"/>
	<path fill="#FFFFFF" d="M7531.012,781.062h-7.227c-1.51-7.828-2.709-16.397-3.602-25.716c-0.889-9.326-1.41-19.143-1.553-29.453
		h6.83c0.068,3.763,0.213,7.871,0.424,12.316c0.219,4.452,0.502,8.878,0.857,13.295c0.355,4.404,0.752,8.57,1.172,12.481
		c0.43,3.912,0.924,7.187,1.494,9.818c2.273-3.201,4.609-6.757,6.992-10.674c2.377-3.905,4.66-7.98,6.83-12.214
		c2.17-4.234,4.197-8.487,6.082-12.759c1.885-4.27,3.473-8.359,4.748-12.265h7.158c0,3.484,0.082,7.288,0.264,11.412
		c0.17,4.125,0.4,8.325,0.688,12.596s0.625,8.468,1.014,12.592c0.393,4.125,0.836,7.897,1.34,11.312
		c1.703-1.921,3.787-4.817,6.242-8.7c2.453-3.872,4.926-8.11,7.414-12.699c2.486-4.585,4.822-9.229,6.992-13.921
		c2.166-4.7,3.789-8.898,4.857-12.591h6.828c-1.639,5.262-3.771,10.651-6.404,16.159c-2.635,5.521-5.424,10.743-8.377,15.693
		c-2.953,4.939-5.889,9.461-8.807,13.55c-2.914,4.091-5.477,7.349-7.68,9.767h-7.23c-0.725-6.26-1.406-13.021-2.043-20.274
		c-0.65-7.262-1.045-14.412-1.188-21.456c-1.42,3.351-3.078,6.927-4.965,10.729c-1.885,3.808-3.889,7.575-6.027,11.31
		c-2.135,3.734-4.322,7.31-6.562,10.729C7535.338,775.514,7533.147,778.496,7531.012,781.062z"/>
	<path fill="#FFFFFF" d="M7645.731,743.175c0,6.688-0.943,12.486-2.824,17.395c-1.889,4.909-4.307,8.984-7.262,12.22
		c-2.957,3.238-6.227,5.639-9.82,7.206c-3.59,1.562-7.131,2.344-10.619,2.344c-2.486,0-4.854-0.392-7.096-1.179
		c-2.236-0.774-4.215-1.952-5.92-3.51c-1.711-1.567-3.061-3.512-4.061-5.821c-0.994-2.309-1.49-5-1.49-8.062
		c0-6.686,0.941-12.481,2.824-17.393c1.885-4.909,4.309-8.966,7.262-12.167c2.953-3.199,6.223-5.581,9.816-7.15
		c3.59-1.567,7.137-2.344,10.617-2.344c2.494,0,4.861,0.386,7.096,1.179c2.248,0.776,4.221,1.951,5.928,3.516
		c1.705,1.566,3.055,3.507,4.055,5.814C7645.231,737.532,7645.731,740.184,7645.731,743.175z M7603.686,763.344
		c0,4.199,1.17,7.364,3.52,9.501c2.35,2.131,5.156,3.204,8.432,3.204c2.557,0,5.188-0.663,7.898-1.979
		c2.701-1.315,5.172-3.311,7.418-5.976c2.234-2.664,4.09-6.032,5.549-10.083c1.453-4.06,2.186-8.822,2.186-14.302
		c0-4.199-1.176-7.363-3.523-9.502c-2.342-2.129-5.158-3.199-8.43-3.199c-2.562,0-5.199,0.658-7.9,1.974
		c-2.703,1.317-5.176,3.31-7.416,5.973c-2.234,2.671-4.09,6.035-5.545,10.086C7604.411,753.101,7603.686,757.868,7603.686,763.344z"
		/>
	<path fill="#FFFFFF" d="M7663.807,728.339c2.693-1.067,5.66-1.957,8.9-2.664c3.229-0.714,6.408-1.07,9.535-1.07
		c1.633,0,3.195,0.109,4.688,0.321c1.488,0.214,2.914,0.564,4.258,1.063l-1.809,6.302c-2.77-0.855-5.615-1.282-8.533-1.282
		c-1.844,0-3.697,0.146-5.541,0.427c-1.852,0.287-3.695,0.716-5.547,1.28l-11.635,48.346h-6.914L7663.807,728.339z"/>
	<path fill="#FFFFFF" d="M7709.903,699.522l7.24-1.276l-12.285,50.959c2.562-1.702,5.178-3.636,7.844-5.807
		c2.668-2.156,5.227-4.328,7.682-6.494c2.451-2.16,4.672-4.218,6.664-6.177c1.994-1.948,3.557-3.565,4.697-4.835h8.434
		c-1.285,1.625-3.115,3.613-5.494,5.958c-2.389,2.345-4.91,4.722-7.576,7.137c-2.664,2.407-5.299,4.667-7.893,6.76
		c-2.592,2.096-4.744,3.641-6.449,4.635c2.414,1.849,4.775,4.025,7.092,6.518c2.309,2.497,4.426,5.132,6.346,7.912
		c1.918,2.779,3.639,5.578,5.172,8.394c1.521,2.813,2.715,5.43,3.568,7.856h-7.465c-3.123-6.703-6.67-12.456-10.643-17.269
		c-3.979-4.809-8.16-8.709-12.562-11.706l-7.092,28.975h-6.912L7709.903,699.522z"/>
</g>
<g>
	<g>
		<linearGradient id="SVGID_17_" gradientUnits="userSpaceOnUse" x1="3005.0161" y1="292.8271" x2="3156.5425" y2="292.8271">
			<stop  offset="0.3988" style="stop-color:#7B35C6"/>
			<stop  offset="0.5806" style="stop-color:#7834C5"/>
			<stop  offset="0.7114" style="stop-color:#6F33C0"/>
			<stop  offset="0.8263" style="stop-color:#5F2FB8"/>
			<stop  offset="0.9313" style="stop-color:#492BAD"/>
			<stop  offset="1" style="stop-color:#3627A3"/>
		</linearGradient>
		<path fill="url(#SVGID_17_)" d="M3082.852,375.023l-77.836-114.142l73.695-50.251l77.831,114.153L3082.852,375.023z
			 M3026.893,265.012l60.1,88.147l47.674-32.515l-60.094-88.132L3026.893,265.012z"/>
		<linearGradient id="SVGID_18_" gradientUnits="userSpaceOnUse" x1="2411.8003" y1="698.6152" x2="2563.3169" y2="698.6152">
			<stop  offset="0.3988" style="stop-color:#7B35C6"/>
			<stop  offset="0.5806" style="stop-color:#7834C5"/>
			<stop  offset="0.7114" style="stop-color:#6F33C0"/>
			<stop  offset="0.8263" style="stop-color:#5F2FB8"/>
			<stop  offset="0.9313" style="stop-color:#492BAD"/>
			<stop  offset="1" style="stop-color:#3627A3"/>
		</linearGradient>
		<path fill="url(#SVGID_18_)" d="M2489.627,780.806L2411.8,666.67l73.691-50.244l77.825,114.141L2489.627,780.806z
			 M2433.668,670.811l60.101,88.131l47.678-32.516l-60.097-88.132L2433.668,670.811z"/>
		<linearGradient id="SVGID_19_" gradientUnits="userSpaceOnUse" x1="2340.1079" y1="770.6172" x2="2439.4634" y2="770.6172">
			<stop  offset="0.3988" style="stop-color:#7B35C6"/>
			<stop  offset="0.5806" style="stop-color:#7834C5"/>
			<stop  offset="0.7114" style="stop-color:#6F33C0"/>
			<stop  offset="0.8263" style="stop-color:#5F2FB8"/>
			<stop  offset="0.9313" style="stop-color:#492BAD"/>
			<stop  offset="1" style="stop-color:#3627A3"/>
		</linearGradient>
		<path fill="url(#SVGID_19_)" d="M2390.915,824.429l-50.807-74.517l48.56-33.105l50.796,74.512L2390.915,824.429z
			 M2356.308,752.985l37.668,55.231l29.285-19.962l-37.662-55.241L2356.308,752.985z"/>
		<linearGradient id="SVGID_20_" gradientUnits="userSpaceOnUse" x1="3127.4634" y1="229.3818" x2="3226.8149" y2="229.3818">
			<stop  offset="0.3988" style="stop-color:#7B35C6"/>
			<stop  offset="0.5806" style="stop-color:#7834C5"/>
			<stop  offset="0.7114" style="stop-color:#6F33C0"/>
			<stop  offset="0.8263" style="stop-color:#5F2FB8"/>
			<stop  offset="0.9313" style="stop-color:#492BAD"/>
			<stop  offset="1" style="stop-color:#3627A3"/>
		</linearGradient>
		<path fill="url(#SVGID_20_)" d="M3178.268,283.192l-50.805-74.516l48.554-33.105l50.798,74.51L3178.268,283.192z M3143.664,211.75
			l37.669,55.232l29.282-19.962l-37.662-55.241L3143.664,211.75z"/>
		<linearGradient id="SVGID_21_" gradientUnits="userSpaceOnUse" x1="2518.3374" y1="397.1064" x2="2615.4575" y2="397.1064">
			<stop  offset="0.3988" style="stop-color:#7B35C6"/>
			<stop  offset="0.5806" style="stop-color:#7834C5"/>
			<stop  offset="0.7114" style="stop-color:#6F33C0"/>
			<stop  offset="0.8263" style="stop-color:#5F2FB8"/>
			<stop  offset="0.9313" style="stop-color:#492BAD"/>
			<stop  offset="1" style="stop-color:#3627A3"/>
		</linearGradient>
		<path fill="url(#SVGID_21_)" d="M2615.458,397.103c0,26.826-21.742,48.563-48.561,48.563c-26.823,0-48.56-21.737-48.56-48.563
			c0-26.825,21.736-48.557,48.56-48.557C2593.715,348.546,2615.458,370.278,2615.458,397.103z"/>
		<linearGradient id="SVGID_22_" gradientUnits="userSpaceOnUse" x1="2545.0884" y1="308.3154" x2="2683.6128" y2="308.3154">
			<stop  offset="0.3988" style="stop-color:#7B35C6"/>
			<stop  offset="0.5806" style="stop-color:#7834C5"/>
			<stop  offset="0.7114" style="stop-color:#6F33C0"/>
			<stop  offset="0.8263" style="stop-color:#5F2FB8"/>
			<stop  offset="0.9313" style="stop-color:#492BAD"/>
			<stop  offset="1" style="stop-color:#3627A3"/>
		</linearGradient>
		<path fill="url(#SVGID_22_)" d="M2556.961,339.281c0.266-13.277,3.771-24.666,10.948-33.484
			c10.866-13.354,29.027-20.115,53.98-20.115c15.18,0,32.053,2.529,50.05,7.212l-0.008-0.062l11.681-8.69
			c-22.317-6.547-43.197-10.122-61.723-10.122c-28.231,0-50.032,8.444-63.032,24.419c-9.562,11.753-13.958,26.785-13.764,44.171
			C2548.875,341.097,2552.84,339.989,2556.961,339.281z"/>
		<linearGradient id="SVGID_23_" gradientUnits="userSpaceOnUse" x1="2534.2251" y1="501.1104" x2="3047.3364" y2="501.1104">
			<stop  offset="0.3988" style="stop-color:#7B35C6"/>
			<stop  offset="0.5806" style="stop-color:#7834C5"/>
			<stop  offset="0.7114" style="stop-color:#6F33C0"/>
			<stop  offset="0.8263" style="stop-color:#5F2FB8"/>
			<stop  offset="0.9313" style="stop-color:#492BAD"/>
			<stop  offset="1" style="stop-color:#3627A3"/>
		</linearGradient>
		<path fill="url(#SVGID_23_)" d="M3001.357,349.978c-46.186-64.359-122.105-102.784-203.077-102.784
			c-55.213,0-108.429,17.259-153.893,49.902c-19.275,13.826-36.297,29.898-50.928,47.7c4.576,2.334,8.793,5.244,12.585,8.644
			c13.61-16.38,29.396-31.196,47.206-43.987c42.865-30.781,93.017-47.054,145.029-47.054c76.08,0,147.38,36.061,190.72,96.454
			c36.721,51.152,50.655,114.038,39.226,177.062c-11.431,63.123-46.915,118.826-99.905,156.86
			c-42.889,30.771-93.042,47.035-145.044,47.035c0,0-0.012,0-0.021,0c-76.094,0-147.369-36.051-190.696-96.428
			c-36.71-51.169-50.648-114.056-39.229-177.084c0.703-3.883,1.503-7.737,2.392-11.568c-5.095-0.98-9.93-2.663-14.468-4.874
			c-1.073,4.536-2.061,9.107-2.892,13.729c-12.159,67.117,2.696,134.124,41.839,188.663
			c46.18,64.353,122.076,102.763,203.055,102.778c0.01,0,0.015,0,0.021,0c55.193,0,108.424-17.258,153.92-49.892
			c36.968-26.534,65.913-61.198,84.854-100.88c3.498-7.342,6.657-14.857,9.46-22.521c5.088-13.908,9.009-28.304,11.688-43.104
			C3055.364,471.517,3040.506,404.511,3001.357,349.978z"/>
		<linearGradient id="SVGID_24_" gradientUnits="userSpaceOnUse" x1="2587.022" y1="576.0059" x2="3042.5757" y2="576.0059">
			<stop  offset="0.3988" style="stop-color:#7B35C6"/>
			<stop  offset="0.5806" style="stop-color:#7834C5"/>
			<stop  offset="0.7114" style="stop-color:#6F33C0"/>
			<stop  offset="0.8263" style="stop-color:#5F2FB8"/>
			<stop  offset="0.9313" style="stop-color:#492BAD"/>
			<stop  offset="1" style="stop-color:#3627A3"/>
		</linearGradient>
		<path fill="url(#SVGID_24_)" d="M3024.038,599.951c10.211,31.566,8.98,57.372-4.194,73.562
			c-10.861,13.359-29.011,20.121-53.966,20.121h-0.004c-64.153,0-157.949-43.884-244.789-114.537
			c-51.789-42.145-94.156-88.839-122.91-132.379c-3.484,2.206-7.212,4.038-11.152,5.485
			c29.221,44.443,72.566,91.882,126.703,135.944c88.823,72.259,185.436,117.148,252.148,117.148c0,0,0,0,0.004,0
			c28.228,0,50.016-8.44,63.016-24.414c17.75-21.824,18.12-55.597,1.753-96.868C3028.616,589.403,3026.418,594.724,3024.038,599.951
			z"/>
	</g>
</g>
<g>
	<g>
		<path fill="#FFFFFF" d="M4224.583,375.023l-77.836-114.142l73.695-50.251l77.83,114.153L4224.583,375.023z M4168.624,265.012
			l60.1,88.147l47.674-32.515l-60.094-88.132L4168.624,265.012z"/>
		<path fill="#FFFFFF" d="M3631.358,780.806L3553.53,666.67l73.691-50.244l77.826,114.141L3631.358,780.806z M3575.399,670.811
			l60.1,88.131l47.678-32.516l-60.096-88.132L3575.399,670.811z"/>
		<path fill="#FFFFFF" d="M3532.645,824.429l-50.807-74.517l48.559-33.105l50.797,74.512L3532.645,824.429z M3498.038,752.985
			l37.668,55.231l29.285-19.962l-37.662-55.241L3498.038,752.985z"/>
		<path fill="#FFFFFF" d="M4319.999,283.192l-50.805-74.516l48.553-33.105l50.799,74.51L4319.999,283.192z M4285.393,211.75
			l37.67,55.232l29.281-19.962l-37.662-55.241L4285.393,211.75z"/>
		<path fill="#FFFFFF" d="M3757.188,397.103c0,26.826-21.742,48.563-48.561,48.563c-26.824,0-48.561-21.737-48.561-48.563
			c0-26.825,21.736-48.557,48.561-48.557C3735.446,348.546,3757.188,370.278,3757.188,397.103z"/>
		<path fill="#FFFFFF" d="M3698.692,339.281c0.266-13.277,3.771-24.666,10.947-33.484c10.867-13.354,29.027-20.115,53.98-20.115
			c15.18,0,32.053,2.529,50.051,7.212l-0.008-0.062l11.68-8.69c-22.316-6.547-43.197-10.122-61.723-10.122
			c-28.23,0-50.031,8.444-63.031,24.419c-9.562,11.753-13.959,26.785-13.764,44.171
			C3690.604,341.097,3694.571,339.989,3698.692,339.281z"/>
		<path fill="#FFFFFF" d="M4143.086,349.978c-46.186-64.359-122.105-102.784-203.076-102.784
			c-55.213,0-108.43,17.259-153.893,49.902c-19.275,13.826-36.297,29.898-50.928,47.7c4.576,2.334,8.793,5.244,12.584,8.644
			c13.611-16.38,29.396-31.196,47.207-43.987c42.865-30.781,93.016-47.054,145.029-47.054c76.08,0,147.379,36.061,190.719,96.454
			c36.721,51.152,50.656,114.038,39.227,177.062c-11.432,63.123-46.916,118.826-99.906,156.86
			c-42.889,30.771-93.041,47.035-145.043,47.035c0,0-0.012,0-0.021,0c-76.094,0-147.369-36.051-190.697-96.428
			c-36.709-51.169-50.648-114.056-39.229-177.084c0.703-3.883,1.502-7.737,2.391-11.568c-5.094-0.98-9.93-2.663-14.467-4.874
			c-1.074,4.536-2.061,9.107-2.893,13.729c-12.158,67.117,2.697,134.124,41.84,188.663
			c46.18,64.353,122.076,102.763,203.055,102.778c0.01,0,0.014,0,0.021,0c55.193,0,108.424-17.258,153.92-49.892
			c36.967-26.534,65.912-61.198,84.854-100.88c3.498-7.342,6.656-14.857,9.459-22.521c5.088-13.908,9.01-28.304,11.688-43.104
			C4197.094,471.517,4182.237,404.511,4143.086,349.978z"/>
		<path fill="#FFFFFF" d="M4165.768,599.951c10.211,31.566,8.98,57.372-4.195,73.562c-10.861,13.359-29.01,20.121-53.965,20.121
			h-0.004c-64.154,0-157.949-43.884-244.789-114.537c-51.789-42.145-94.156-88.839-122.91-132.379
			c-3.484,2.206-7.213,4.038-11.152,5.485c29.221,44.443,72.566,91.882,126.703,135.944
			c88.822,72.259,185.436,117.148,252.148,117.148c0,0,0,0,0.004,0c28.227,0,50.016-8.44,63.016-24.414
			c17.75-21.824,18.119-55.597,1.752-96.868C4170.346,589.403,4168.149,594.724,4165.768,599.951z"/>
	</g>
</g>
<g>
	<g>
		<g>
			<g>
				<path fill="#211357" d="M-919.367,919.238v25.728h-103.395V781.383h29.744v137.855H-919.367z"/>
				<path fill="#211357" d="M-847.609,818.443c9.445,0,17.387,1.177,23.842,3.542c6.455,2.357,11.607,5.662,15.465,9.911
					c3.854,4.249,6.605,9.405,8.26,15.462c1.656,6.062,2.48,12.712,2.48,19.945v74.831c-4.408,0.945-11.057,2.09-19.949,3.425
					c-8.893,1.334-18.924,2.001-30.098,2.001c-7.395,0-14.16-0.704-20.299-2.122c-6.135-1.419-11.373-3.698-15.695-6.845
					c-4.334-3.146-7.715-7.238-10.152-12.274c-2.441-5.032-3.656-11.252-3.656-18.646c0-7.086,1.375-13.062,4.129-17.941
					c2.752-4.875,6.49-8.851,11.213-11.92c4.723-3.071,10.186-5.271,16.404-6.611c6.213-1.334,12.705-2.006,19.477-2.006
					c3.145,0,6.449,0.198,9.916,0.592c3.455,0.39,7.154,1.057,11.092,2.003v-4.718c0-3.31-0.393-6.45-1.182-9.444
					c-0.787-2.987-2.162-5.624-4.129-7.908c-1.969-2.275-4.568-4.046-7.787-5.311c-3.23-1.257-7.285-1.886-12.16-1.886
					c-6.607,0-12.668,0.472-18.174,1.412c-5.514,0.945-10,2.049-13.457,3.304l-3.541-23.132c3.621-1.256,8.889-2.516,15.816-3.776
					C-862.873,819.074-855.476,818.443-847.609,818.443z M-845.244,924.901c8.809,0,15.494-0.473,20.062-1.419v-31.63
					c-1.574-0.473-3.859-0.94-6.848-1.412c-2.99-0.474-6.293-0.709-9.912-0.709c-3.15,0-6.338,0.235-9.559,0.709
					c-3.23,0.472-6.141,1.338-8.736,2.594c-2.594,1.261-4.684,3.035-6.254,5.311c-1.576,2.284-2.359,5.158-2.359,8.619
					c0,6.766,2.123,11.445,6.371,14.045C-858.23,923.604-852.486,924.901-845.244,924.901z"/>
				<path fill="#211357" d="M-760.035,883.354c0-9.124,1.418-17.658,4.25-25.61c2.832-7.942,6.883-14.828,12.158-20.654
					c5.27-5.819,11.684-10.389,19.236-13.688c7.553-3.307,16.051-4.958,25.494-4.958c11.646,0,22.66,2.123,33.049,6.372
					l-6.139,23.369c-3.305-1.418-7.045-2.595-11.211-3.541c-4.174-0.944-8.617-1.419-13.34-1.419c-11.172,0-19.67,3.51-25.49,10.506
					c-5.824,7.007-8.736,16.88-8.736,29.624c0,12.279,2.754,21.997,8.264,29.156c5.506,7.163,14.791,10.741,27.854,10.741
					c4.875,0,9.68-0.473,14.396-1.419c4.723-0.944,8.814-2.121,12.275-3.539l4.014,23.604c-3.146,1.575-7.906,2.993-14.283,4.249
					c-6.369,1.255-12.941,1.886-19.705,1.886c-10.547,0-19.713-1.612-27.504-4.838c-7.787-3.225-14.242-7.706-19.355-13.456
					c-5.115-5.741-8.934-12.586-11.449-20.537C-758.773,901.26-760.035,892.645-760.035,883.354z"/>
				<path fill="#211357" d="M-531.064,941.189c-5.508,1.418-12.668,2.872-21.477,4.37c-8.818,1.49-18.494,2.241-29.037,2.241
					c-9.916,0-18.215-1.417-24.9-4.253c-6.691-2.831-12.039-6.762-16.051-11.798c-4.014-5.037-6.887-11.057-8.619-18.062
					c-1.734-6.997-2.596-14.671-2.596-23.012v-69.163h28.562v64.679c0,13.215,1.922,22.658,5.783,28.325
					c3.855,5.668,10.578,8.498,20.18,8.498c3.463,0,7.123-0.156,10.977-0.472c3.855-0.315,6.73-0.71,8.615-1.182v-99.849h28.562
					V941.189z"/>
				<path fill="#211357" d="M-485.267,825.524c5.51-1.57,12.67-3.067,21.482-4.485c8.812-1.419,18.568-2.122,29.271-2.122
					c10.068,0,18.488,1.376,25.258,4.128c6.762,2.758,12.154,6.608,16.168,11.566c4.014,4.959,6.846,10.941,8.498,17.942
					c1.654,7.003,2.48,14.676,2.48,23.017v69.396h-28.564V880.05c0-6.606-0.436-12.232-1.297-16.875
					c-0.865-4.639-2.283-8.415-4.248-11.33c-1.969-2.909-4.643-5.037-8.025-6.377c-3.389-1.334-7.518-2.001-12.396-2.001
					c-3.619,0-7.395,0.232-11.33,0.704c-3.934,0.473-6.844,0.866-8.734,1.182v99.613h-28.562V825.524z"/>
				<path fill="#211357" d="M-296.667,818.443c9.445,0,17.387,1.177,23.842,3.542c6.455,2.357,11.607,5.662,15.463,9.911
					c3.854,4.249,6.607,9.405,8.262,15.462c1.654,6.062,2.479,12.712,2.479,19.945v74.831c-4.406,0.945-11.057,2.09-19.947,3.425
					c-8.893,1.334-18.926,2.001-30.098,2.001c-7.395,0-14.16-0.704-20.299-2.122c-6.137-1.419-11.373-3.698-15.697-6.845
					c-4.332-3.146-7.715-7.238-10.15-12.274c-2.443-5.032-3.658-11.252-3.658-18.646c0-7.086,1.377-13.062,4.129-17.941
					c2.754-4.875,6.492-8.851,11.215-11.92c4.723-3.071,10.186-5.271,16.402-6.611c6.215-1.334,12.707-2.006,19.477-2.006
					c3.146,0,6.451,0.198,9.918,0.592c3.455,0.39,7.154,1.057,11.092,2.003v-4.718c0-3.31-0.393-6.45-1.182-9.444
					c-0.787-2.987-2.164-5.624-4.129-7.908c-1.969-2.275-4.568-4.046-7.789-5.311c-3.23-1.257-7.285-1.886-12.16-1.886
					c-6.607,0-12.668,0.472-18.172,1.412c-5.516,0.945-10.002,2.049-13.457,3.304l-3.541-23.132
					c3.621-1.256,8.889-2.516,15.816-3.776C-311.931,819.074-304.537,818.443-296.667,818.443z M-294.304,924.901
					c8.809,0,15.496-0.473,20.064-1.419v-31.63c-1.574-0.473-3.859-0.94-6.848-1.412c-2.99-0.474-6.295-0.709-9.912-0.709
					c-3.15,0-6.34,0.235-9.559,0.709c-3.232,0.472-6.141,1.338-8.736,2.594c-2.594,1.261-4.684,3.035-6.256,5.311
					c-1.576,2.284-2.357,5.158-2.357,8.619c0,6.766,2.121,11.445,6.371,14.045C-307.289,923.604-301.546,924.901-294.304,924.901z"
					/>
			</g>
		</g>
	</g>
	<g>
		<linearGradient id="SVGID_25_" gradientUnits="userSpaceOnUse" x1="-441.6128" y1="157.877" x2="-304.7476" y2="157.877">
			<stop  offset="0.3988" style="stop-color:#7B35C6"/>
			<stop  offset="0.5806" style="stop-color:#7834C5"/>
			<stop  offset="0.7114" style="stop-color:#6F33C0"/>
			<stop  offset="0.8263" style="stop-color:#5F2FB8"/>
			<stop  offset="0.9313" style="stop-color:#492BAD"/>
			<stop  offset="1" style="stop-color:#3627A3"/>
		</linearGradient>
		<path fill="url(#SVGID_25_)" d="M-371.308,232.12l-70.305-103.098l66.564-45.389l70.301,103.107L-371.308,232.12z
			 M-421.853,132.753l54.285,79.618l43.061-29.369l-54.279-79.604L-421.853,132.753z"/>
		<linearGradient id="SVGID_26_" gradientUnits="userSpaceOnUse" x1="-977.4292" y1="524.4023" x2="-840.5737" y2="524.4023">
			<stop  offset="0.3988" style="stop-color:#7B35C6"/>
			<stop  offset="0.5806" style="stop-color:#7834C5"/>
			<stop  offset="0.7114" style="stop-color:#6F33C0"/>
			<stop  offset="0.8263" style="stop-color:#5F2FB8"/>
			<stop  offset="0.9313" style="stop-color:#492BAD"/>
			<stop  offset="1" style="stop-color:#3627A3"/>
		</linearGradient>
		<path fill="url(#SVGID_26_)" d="M-907.132,598.64l-70.297-103.093l66.561-45.383l70.295,103.097L-907.132,598.64z
			 M-957.677,499.287l54.285,79.604l43.064-29.369l-54.281-79.604L-957.677,499.287z"/>
		<linearGradient id="SVGID_27_" gradientUnits="userSpaceOnUse" x1="-1042.1851" y1="589.4375" x2="-952.4429" y2="589.4375">
			<stop  offset="0.3988" style="stop-color:#7B35C6"/>
			<stop  offset="0.5806" style="stop-color:#7834C5"/>
			<stop  offset="0.7114" style="stop-color:#6F33C0"/>
			<stop  offset="0.8263" style="stop-color:#5F2FB8"/>
			<stop  offset="0.9313" style="stop-color:#492BAD"/>
			<stop  offset="1" style="stop-color:#3627A3"/>
		</linearGradient>
		<path fill="url(#SVGID_27_)" d="M-996.294,638.041l-45.891-67.306l43.861-29.902l45.881,67.302L-996.294,638.041z
			 M-1027.552,573.511l34.023,49.888l26.451-18.03l-34.018-49.896L-1027.552,573.511z"/>
		<linearGradient id="SVGID_28_" gradientUnits="userSpaceOnUse" x1="-331.0132" y1="100.5708" x2="-241.2749" y2="100.5708">
			<stop  offset="0.3988" style="stop-color:#7B35C6"/>
			<stop  offset="0.5806" style="stop-color:#7834C5"/>
			<stop  offset="0.7114" style="stop-color:#6F33C0"/>
			<stop  offset="0.8263" style="stop-color:#5F2FB8"/>
			<stop  offset="0.9313" style="stop-color:#492BAD"/>
			<stop  offset="1" style="stop-color:#3627A3"/>
		</linearGradient>
		<path fill="url(#SVGID_28_)" d="M-285.125,149.175l-45.889-67.306l43.855-29.902l45.883,67.301L-285.125,149.175z M-316.38,84.645
			l34.023,49.888l26.449-18.03l-34.018-49.896L-316.38,84.645z"/>
		<linearGradient id="SVGID_29_" gradientUnits="userSpaceOnUse" x1="-881.2007" y1="252.0664" x2="-793.478" y2="252.0664">
			<stop  offset="0.3988" style="stop-color:#7B35C6"/>
			<stop  offset="0.5806" style="stop-color:#7834C5"/>
			<stop  offset="0.7114" style="stop-color:#6F33C0"/>
			<stop  offset="0.8263" style="stop-color:#5F2FB8"/>
			<stop  offset="0.9313" style="stop-color:#492BAD"/>
			<stop  offset="1" style="stop-color:#3627A3"/>
		</linearGradient>
		<path fill="url(#SVGID_29_)" d="M-793.478,252.063c0,24.23-19.639,43.864-43.861,43.864c-24.229,0-43.861-19.634-43.861-43.864
			c0-24.229,19.633-43.858,43.861-43.858C-813.117,208.205-793.478,227.834-793.478,252.063z"/>
		<linearGradient id="SVGID_30_" gradientUnits="userSpaceOnUse" x1="-857.0381" y1="171.8667" x2="-731.9175" y2="171.8667">
			<stop  offset="0.3988" style="stop-color:#7B35C6"/>
			<stop  offset="0.5806" style="stop-color:#7834C5"/>
			<stop  offset="0.7114" style="stop-color:#6F33C0"/>
			<stop  offset="0.8263" style="stop-color:#5F2FB8"/>
			<stop  offset="0.9313" style="stop-color:#492BAD"/>
			<stop  offset="1" style="stop-color:#3627A3"/>
		</linearGradient>
		<path fill="url(#SVGID_30_)" d="M-846.314,199.836c0.24-11.992,3.406-22.279,9.889-30.244
			c9.814-12.062,26.219-18.169,48.758-18.169c13.711,0,28.951,2.284,45.207,6.515l-0.008-0.056l10.551-7.85
			c-20.158-5.913-39.018-9.143-55.75-9.143c-25.5,0-45.191,7.627-56.934,22.057c-8.637,10.616-12.607,24.193-12.432,39.897
			C-853.619,201.477-850.037,200.476-846.314,199.836z"/>
		<linearGradient id="SVGID_31_" gradientUnits="userSpaceOnUse" x1="-866.8506" y1="346.0073" x2="-403.3867" y2="346.0073">
			<stop  offset="0.3988" style="stop-color:#7B35C6"/>
			<stop  offset="0.5806" style="stop-color:#7834C5"/>
			<stop  offset="0.7114" style="stop-color:#6F33C0"/>
			<stop  offset="0.8263" style="stop-color:#5F2FB8"/>
			<stop  offset="0.9313" style="stop-color:#492BAD"/>
			<stop  offset="1" style="stop-color:#3627A3"/>
		</linearGradient>
		<path fill="url(#SVGID_31_)" d="M-444.917,209.498c-41.717-58.132-110.291-92.839-183.428-92.839
			c-49.871,0-97.938,15.589-139.002,45.073c-17.41,12.488-32.785,27.006-46,43.085c4.133,2.108,7.941,4.736,11.367,7.808
			c12.293-14.795,26.551-28.178,42.639-39.73c38.717-27.803,84.016-42.501,130.996-42.501c68.719,0,133.119,32.571,172.266,87.121
			c33.168,46.203,45.754,103.004,35.43,159.931c-10.324,57.015-42.375,107.328-90.238,141.683
			c-38.738,27.794-84.039,42.483-131.01,42.483c0,0-0.01,0-0.02,0c-68.73,0-133.109-32.562-172.244-87.097
			c-33.158-46.219-45.748-103.02-35.434-159.95c0.635-3.508,1.357-6.988,2.16-10.449c-4.602-0.886-8.969-2.405-13.068-4.402
			c-0.969,4.097-1.861,8.226-2.611,12.4c-10.982,60.623,2.436,121.146,37.791,170.408c41.711,58.126,110.264,92.819,183.406,92.834
			c0.01,0,0.014,0,0.02,0c49.854,0,97.934-15.588,139.027-45.064c33.391-23.967,59.535-55.276,76.643-91.119
			c3.16-6.631,6.014-13.42,8.545-20.342c4.596-12.562,8.137-25.565,10.557-38.934C-396.136,319.277-409.556,258.755-444.917,209.498
			z"/>
		<linearGradient id="SVGID_32_" gradientUnits="userSpaceOnUse" x1="-819.1616" y1="413.6558" x2="-407.687" y2="413.6558">
			<stop  offset="0.3988" style="stop-color:#7B35C6"/>
			<stop  offset="0.5806" style="stop-color:#7834C5"/>
			<stop  offset="0.7114" style="stop-color:#6F33C0"/>
			<stop  offset="0.8263" style="stop-color:#5F2FB8"/>
			<stop  offset="0.9313" style="stop-color:#492BAD"/>
			<stop  offset="1" style="stop-color:#3627A3"/>
		</linearGradient>
		<path fill="url(#SVGID_32_)" d="M-424.431,435.284c9.223,28.512,8.111,51.82-3.789,66.443
			c-9.811,12.067-26.203,18.175-48.744,18.175h-0.004c-57.945,0-142.666-39.638-221.104-103.455
			c-46.777-38.066-85.045-80.243-111.018-119.57c-3.146,1.992-6.514,3.647-10.072,4.954
			c26.393,40.143,65.545,82.991,114.443,122.791c80.229,65.267,167.492,105.812,227.75,105.812c0,0,0,0,0.004,0
			c25.496,0,45.176-7.623,56.918-22.052c16.033-19.712,16.367-50.217,1.584-87.495
			C-420.296,425.757-422.281,430.562-424.431,435.284z"/>
	</g>
</g>
<g>
	<g>
		<g>
			<g>
				<path fill="#FFFFFF" d="M4789.286,919.238v25.728h-103.395V781.383h29.744v137.855H4789.286z"/>
				<path fill="#FFFFFF" d="M4861.043,818.443c9.445,0,17.387,1.177,23.842,3.542c6.455,2.357,11.607,5.662,15.465,9.911
					c3.854,4.249,6.605,9.405,8.26,15.462c1.656,6.062,2.48,12.712,2.48,19.945v74.831c-4.408,0.945-11.057,2.09-19.949,3.425
					c-8.893,1.334-18.924,2.001-30.098,2.001c-7.395,0-14.16-0.704-20.299-2.122c-6.135-1.419-11.373-3.698-15.695-6.845
					c-4.334-3.146-7.715-7.238-10.152-12.274c-2.441-5.032-3.656-11.252-3.656-18.646c0-7.086,1.375-13.062,4.129-17.941
					c2.752-4.875,6.49-8.851,11.213-11.92c4.723-3.071,10.186-5.271,16.404-6.611c6.213-1.334,12.705-2.006,19.477-2.006
					c3.145,0,6.449,0.198,9.916,0.592c3.455,0.39,7.154,1.057,11.092,2.003v-4.718c0-3.31-0.393-6.45-1.182-9.444
					c-0.787-2.987-2.162-5.624-4.129-7.908c-1.969-2.275-4.568-4.046-7.787-5.311c-3.23-1.257-7.285-1.886-12.16-1.886
					c-6.607,0-12.668,0.472-18.174,1.412c-5.514,0.945-10,2.049-13.457,3.304l-3.541-23.132c3.621-1.256,8.889-2.516,15.816-3.776
					C4845.78,819.074,4853.176,818.443,4861.043,818.443z M4863.409,924.901c8.809,0,15.494-0.473,20.062-1.419v-31.63
					c-1.574-0.473-3.859-0.94-6.848-1.412c-2.99-0.474-6.293-0.709-9.912-0.709c-3.15,0-6.338,0.235-9.559,0.709
					c-3.23,0.472-6.141,1.338-8.736,2.594c-2.594,1.261-4.684,3.035-6.254,5.311c-1.576,2.284-2.359,5.158-2.359,8.619
					c0,6.766,2.123,11.445,6.371,14.045C4850.422,923.604,4856.167,924.901,4863.409,924.901z"/>
				<path fill="#FFFFFF" d="M4948.618,883.354c0-9.124,1.418-17.658,4.25-25.61c2.832-7.942,6.883-14.828,12.158-20.654
					c5.27-5.819,11.684-10.389,19.236-13.688c7.553-3.307,16.051-4.958,25.494-4.958c11.646,0,22.66,2.123,33.049,6.372
					l-6.139,23.369c-3.305-1.418-7.045-2.595-11.211-3.541c-4.174-0.944-8.617-1.419-13.34-1.419c-11.172,0-19.67,3.51-25.49,10.506
					c-5.824,7.007-8.736,16.88-8.736,29.624c0,12.279,2.754,21.997,8.264,29.156c5.506,7.163,14.791,10.741,27.854,10.741
					c4.875,0,9.68-0.473,14.396-1.419c4.723-0.944,8.814-2.121,12.275-3.539l4.014,23.604c-3.146,1.575-7.906,2.993-14.283,4.249
					c-6.369,1.255-12.941,1.886-19.705,1.886c-10.547,0-19.713-1.612-27.504-4.838c-7.787-3.225-14.242-7.706-19.355-13.456
					c-5.115-5.741-8.934-12.586-11.449-20.537C4949.879,901.26,4948.618,892.645,4948.618,883.354z"/>
				<path fill="#FFFFFF" d="M5177.588,941.189c-5.508,1.418-12.668,2.872-21.477,4.37c-8.818,1.49-18.494,2.241-29.037,2.241
					c-9.916,0-18.215-1.417-24.9-4.253c-6.691-2.831-12.039-6.762-16.051-11.798c-4.014-5.037-6.887-11.057-8.619-18.062
					c-1.734-6.997-2.596-14.671-2.596-23.012v-69.163h28.562v64.679c0,13.215,1.922,22.658,5.783,28.325
					c3.855,5.668,10.578,8.498,20.18,8.498c3.463,0,7.123-0.156,10.977-0.472c3.855-0.315,6.73-0.71,8.615-1.182v-99.849h28.562
					V941.189z"/>
				<path fill="#FFFFFF" d="M5223.385,825.524c5.51-1.57,12.67-3.067,21.482-4.485c8.812-1.419,18.568-2.122,29.271-2.122
					c10.068,0,18.488,1.376,25.258,4.128c6.762,2.758,12.154,6.608,16.168,11.566c4.014,4.959,6.846,10.941,8.498,17.942
					c1.654,7.003,2.48,14.676,2.48,23.017v69.396h-28.564V880.05c0-6.606-0.436-12.232-1.297-16.875
					c-0.865-4.639-2.283-8.415-4.248-11.33c-1.969-2.909-4.643-5.037-8.025-6.377c-3.389-1.334-7.518-2.001-12.396-2.001
					c-3.619,0-7.395,0.232-11.33,0.704c-3.934,0.473-6.844,0.866-8.734,1.182v99.613h-28.562V825.524z"/>
				<path fill="#FFFFFF" d="M5411.985,818.443c9.445,0,17.387,1.177,23.842,3.542c6.455,2.357,11.607,5.662,15.463,9.911
					c3.854,4.249,6.607,9.405,8.262,15.462c1.654,6.062,2.479,12.712,2.479,19.945v74.831c-4.406,0.945-11.057,2.09-19.947,3.425
					c-8.893,1.334-18.926,2.001-30.098,2.001c-7.395,0-14.16-0.704-20.299-2.122c-6.137-1.419-11.373-3.698-15.697-6.845
					c-4.332-3.146-7.715-7.238-10.15-12.274c-2.443-5.032-3.658-11.252-3.658-18.646c0-7.086,1.377-13.062,4.129-17.941
					c2.754-4.875,6.492-8.851,11.215-11.92c4.723-3.071,10.186-5.271,16.402-6.611c6.215-1.334,12.707-2.006,19.477-2.006
					c3.146,0,6.451,0.198,9.918,0.592c3.455,0.39,7.154,1.057,11.092,2.003v-4.718c0-3.31-0.393-6.45-1.182-9.444
					c-0.787-2.987-2.164-5.624-4.129-7.908c-1.969-2.275-4.568-4.046-7.789-5.311c-3.23-1.257-7.285-1.886-12.16-1.886
					c-6.607,0-12.668,0.472-18.172,1.412c-5.516,0.945-10.002,2.049-13.457,3.304l-3.541-23.132
					c3.621-1.256,8.889-2.516,15.816-3.776C5396.721,819.074,5404.116,818.443,5411.985,818.443z M5414.348,924.901
					c8.809,0,15.496-0.473,20.064-1.419v-31.63c-1.574-0.473-3.859-0.94-6.848-1.412c-2.99-0.474-6.295-0.709-9.912-0.709
					c-3.15,0-6.34,0.235-9.559,0.709c-3.232,0.472-6.141,1.338-8.736,2.594c-2.594,1.261-4.684,3.035-6.256,5.311
					c-1.576,2.284-2.357,5.158-2.357,8.619c0,6.766,2.121,11.445,6.371,14.045C5401.364,923.604,5407.106,924.901,5414.348,924.901z
					"/>
			</g>
		</g>
	</g>
	<g>
		<path fill="#FFFFFF" d="M5337.344,232.12l-70.305-103.098l66.564-45.389l70.301,103.107L5337.344,232.12z M5286.799,132.753
			l54.285,79.618l43.061-29.369l-54.279-79.604L5286.799,132.753z"/>
		<path fill="#FFFFFF" d="M4801.52,598.64l-70.297-103.093l66.561-45.383l70.295,103.097L4801.52,598.64z M4750.975,499.287
			l54.285,79.604l43.064-29.369l-54.281-79.604L4750.975,499.287z"/>
		<path fill="#FFFFFF" d="M4712.358,638.041l-45.891-67.306l43.861-29.902l45.881,67.302L4712.358,638.041z M4681.1,573.511
			l34.023,49.888l26.451-18.03l-34.018-49.896L4681.1,573.511z"/>
		<path fill="#FFFFFF" d="M5423.528,149.175l-45.889-67.306l43.855-29.902l45.883,67.301L5423.528,149.175z M5392.272,84.645
			l34.023,49.888l26.449-18.03l-34.018-49.896L5392.272,84.645z"/>
		<path fill="#FFFFFF" d="M4915.174,252.063c0,24.23-19.639,43.864-43.861,43.864c-24.229,0-43.861-19.634-43.861-43.864
			c0-24.229,19.633-43.858,43.861-43.858C4895.536,208.205,4915.174,227.834,4915.174,252.063z"/>
		<path fill="#FFFFFF" d="M4862.338,199.836c0.24-11.992,3.406-22.279,9.889-30.244c9.814-12.062,26.219-18.169,48.758-18.169
			c13.711,0,28.951,2.284,45.207,6.515l-0.008-0.056l10.551-7.85c-20.158-5.913-39.018-9.143-55.75-9.143
			c-25.5,0-45.191,7.627-56.934,22.057c-8.637,10.616-12.607,24.193-12.432,39.897
			C4855.034,201.477,4858.616,200.476,4862.338,199.836z"/>
		<path fill="#FFFFFF" d="M5263.735,209.498c-41.717-58.132-110.291-92.839-183.428-92.839c-49.871,0-97.938,15.589-139.002,45.073
			c-17.41,12.488-32.785,27.006-46,43.085c4.133,2.108,7.941,4.736,11.367,7.808c12.293-14.795,26.551-28.178,42.639-39.73
			c38.717-27.803,84.016-42.501,130.996-42.501c68.719,0,133.119,32.571,172.266,87.121c33.168,46.203,45.754,103.004,35.43,159.931
			c-10.324,57.015-42.375,107.328-90.238,141.683c-38.738,27.794-84.039,42.483-131.01,42.483c0,0-0.01,0-0.02,0
			c-68.73,0-133.109-32.562-172.244-87.097c-33.158-46.219-45.748-103.02-35.434-159.95c0.635-3.508,1.357-6.988,2.16-10.449
			c-4.602-0.886-8.969-2.405-13.068-4.402c-0.969,4.097-1.861,8.226-2.611,12.4c-10.982,60.623,2.436,121.146,37.791,170.408
			c41.711,58.126,110.264,92.819,183.406,92.834c0.01,0,0.014,0,0.02,0c49.854,0,97.934-15.588,139.027-45.064
			c33.391-23.967,59.535-55.276,76.643-91.119c3.16-6.631,6.014-13.42,8.545-20.342c4.596-12.562,8.137-25.565,10.557-38.934
			C5312.516,319.277,5299.096,258.755,5263.735,209.498z"/>
		<path fill="#FFFFFF" d="M5284.221,435.284c9.223,28.512,8.111,51.82-3.789,66.443c-9.811,12.067-26.203,18.175-48.744,18.175
			h-0.004c-57.945,0-142.666-39.638-221.104-103.455c-46.777-38.066-85.045-80.243-111.018-119.57
			c-3.146,1.992-6.514,3.647-10.072,4.954c26.393,40.143,65.545,82.991,114.443,122.791
			c80.229,65.267,167.492,105.812,227.75,105.812c0,0,0,0,0.004,0c25.496,0,45.176-7.623,56.918-22.052
			c16.033-19.712,16.367-50.217,1.584-87.495C5288.356,425.757,5286.372,430.562,5284.221,435.284z"/>
	</g>
</g>
</svg>
