<?xml version="1.0" encoding="utf-8"?>
<!-- Generator: Adobe Illustrator 16.0.0, SVG Export Plug-In . SVG Version: 6.00 Build 0)  -->
<!DOCTYPE svg PUBLIC "-//W3C//DTD SVG 1.1//EN" "http://www.w3.org/Graphics/SVG/1.1/DTD/svg11.dtd">
<svg version="1.1" id="Layer_1" xmlns="http://www.w3.org/2000/svg" xmlns:xlink="http://www.w3.org/1999/xlink" x="0px" y="0px"
	 width="1000px" height="1000px" viewBox="0 0 1000 1000" enable-background="new 0 0 1000 1000" xml:space="preserve">
<g>
	<g>
		<g>
			<g>
				<path fill="#211357" d="M222.365,919.238v25.728H118.97V781.383h29.744v137.855H222.365z"/>
				<path fill="#211357" d="M294.123,818.443c9.444,0,17.386,1.177,23.841,3.542c6.455,2.355,11.607,5.661,15.464,9.911
					c3.855,4.247,6.607,9.403,8.262,15.462c1.654,6.062,2.479,12.712,2.479,19.943v74.831c-4.408,0.945-11.056,2.09-19.95,3.425
					c-8.892,1.334-18.923,2.001-30.096,2.001c-7.395,0-14.161-0.703-20.3-2.122c-6.135-1.419-11.372-3.696-15.694-6.845
					c-4.333-3.146-7.715-7.236-10.153-12.272c-2.441-5.032-3.656-11.252-3.656-18.646c0-7.086,1.376-13.062,4.129-17.939
					c2.753-4.875,6.492-8.853,11.214-11.921c4.721-3.07,10.184-5.271,16.404-6.61c6.213-1.334,12.705-2.006,19.476-2.006
					c3.146,0,6.45,0.196,9.916,0.592c3.457,0.39,7.155,1.057,11.093,2.003v-4.718c0-3.312-0.394-6.45-1.182-9.444
					c-0.788-2.987-2.163-5.624-4.129-7.908c-1.971-2.273-4.569-4.046-7.789-5.311c-3.23-1.257-7.284-1.887-12.159-1.887
					c-6.607,0-12.668,0.473-18.174,1.411c-5.513,0.945-10,2.051-13.456,3.306l-3.541-23.133c3.62-1.257,8.888-2.517,15.816-3.775
					C278.859,819.074,286.256,818.443,294.123,818.443z M296.487,924.901c8.809,0,15.497-0.475,20.063-1.419v-31.632
					c-1.576-0.473-3.858-0.938-6.849-1.41c-2.989-0.476-6.292-0.709-9.912-0.709c-3.15,0-6.338,0.233-9.559,0.709
					c-3.229,0.472-6.14,1.338-8.735,2.594c-2.595,1.261-4.684,3.035-6.255,5.311c-1.575,2.284-2.358,5.158-2.358,8.619
					c0,6.768,2.122,11.445,6.371,14.045C283.502,923.604,289.245,924.901,296.487,924.901z"/>
				<path fill="#211357" d="M381.697,883.354c0-9.122,1.418-17.656,4.25-25.608c2.831-7.942,6.881-14.828,12.158-20.654
					c5.269-5.817,11.683-10.389,19.234-13.688c7.553-3.309,16.051-4.958,25.495-4.958c11.646,0,22.66,2.123,33.048,6.372
					l-6.14,23.368c-3.306-1.419-7.044-2.596-11.21-3.541c-4.175-0.943-8.618-1.42-13.34-1.42c-11.174,0-19.67,3.512-25.491,10.508
					c-5.824,7.007-8.735,16.88-8.735,29.624c0,12.277,2.754,21.995,8.264,29.154c5.507,7.163,14.791,10.741,27.854,10.741
					c4.875,0,9.681-0.473,14.396-1.419c4.724-0.944,8.812-2.121,12.273-3.539l4.013,23.604c-3.146,1.573-7.903,2.992-14.28,4.249
					c-6.37,1.255-12.942,1.886-19.707,1.886c-10.547,0-19.712-1.612-27.502-4.838c-7.789-3.227-14.244-7.706-19.355-13.456
					c-5.115-5.741-8.934-12.586-11.45-20.537C382.958,901.26,381.697,892.645,381.697,883.354z"/>
				<path fill="#211357" d="M610.667,941.189c-5.509,1.418-12.668,2.87-21.477,4.368c-8.818,1.49-18.494,2.241-29.037,2.241
					c-9.916,0-18.216-1.417-24.901-4.253c-6.691-2.831-12.039-6.762-16.051-11.798c-4.014-5.037-6.886-11.057-8.619-18.062
					c-1.734-6.997-2.596-14.673-2.596-23.014V821.51h28.562v64.681c0,13.215,1.923,22.656,5.783,28.323
					c3.856,5.668,10.579,8.498,20.18,8.498c3.463,0,7.123-0.154,10.979-0.472c3.854-0.315,6.729-0.71,8.613-1.182v-99.851h28.562
					L610.667,941.189L610.667,941.189z"/>
				<path fill="#211357" d="M656.463,825.524c5.51-1.57,12.67-3.067,21.482-4.485c8.812-1.419,18.566-2.122,29.271-2.122
					c10.068,0,18.487,1.376,25.258,4.128c6.763,2.758,12.154,6.608,16.168,11.566c4.015,4.959,6.847,10.939,8.498,17.94
					c1.653,7.003,2.479,14.676,2.479,23.019v69.396h-28.563V880.05c0-6.604-0.436-12.23-1.297-16.875
					c-0.866-4.639-2.284-8.415-4.249-11.33c-1.969-2.909-4.643-5.037-8.023-6.377c-3.39-1.334-7.519-2.001-12.396-2.001
					c-3.618,0-7.395,0.232-11.33,0.704c-3.934,0.473-6.844,0.866-8.731,1.182v99.613h-28.563L656.463,825.524L656.463,825.524z"/>
				<path fill="#211357" d="M845.064,818.443c9.442,0,17.387,1.177,23.842,3.542c6.454,2.355,11.604,5.661,15.462,9.911
					c3.854,4.247,6.606,9.403,8.262,15.462c1.654,6.062,2.479,12.712,2.479,19.943v74.831c-4.405,0.945-11.058,2.09-19.947,3.425
					c-8.893,1.334-18.925,2.001-30.098,2.001c-7.396,0-14.16-0.703-20.301-2.122c-6.137-1.419-11.372-3.696-15.694-6.845
					c-4.332-3.146-7.717-7.236-10.151-12.272c-2.443-5.032-3.657-11.252-3.657-18.646c0-7.086,1.377-13.062,4.129-17.939
					c2.753-4.875,6.492-8.853,11.216-11.921c4.723-3.07,10.186-5.271,16.401-6.61c6.216-1.334,12.707-2.006,19.479-2.006
					c3.146,0,6.448,0.196,9.917,0.592c3.456,0.39,7.152,1.057,11.093,2.003v-4.718c0-3.312-0.396-6.45-1.183-9.444
					c-0.786-2.987-2.163-5.624-4.129-7.908c-1.97-2.273-4.568-4.046-7.791-5.311c-3.229-1.257-7.282-1.887-12.157-1.887
					c-6.607,0-12.669,0.473-18.175,1.411c-5.515,0.945-10,2.051-13.455,3.306l-3.54-23.133c3.619-1.257,8.889-2.517,15.813-3.775
					C829.8,819.074,837.195,818.443,845.064,818.443z M847.427,924.901c8.811,0,15.495-0.475,20.064-1.419v-31.632
					c-1.575-0.473-3.86-0.938-6.849-1.41c-2.989-0.476-6.296-0.709-9.912-0.709c-3.15,0-6.342,0.233-9.561,0.709
					c-3.23,0.472-6.14,1.338-8.734,2.594c-2.596,1.261-4.686,3.035-6.258,5.311c-1.574,2.284-2.355,5.158-2.355,8.619
					c0,6.768,2.122,11.445,6.371,14.045C834.443,923.604,840.184,924.901,847.427,924.901z"/>
			</g>
			<g>
				<path fill="#211357" d="M655.253,766.921c2.471,1.335,4.639,2.238,6.511,2.701c1.867,0.469,3.974,0.7,6.309,0.7
					c1.668,0,3.271-0.183,4.807-0.553c1.533-0.36,2.867-0.916,4.007-1.648c1.131-0.732,2.034-1.705,2.702-2.905
					c0.667-1.2,1.001-2.6,1.001-4.203c0-1.735-0.486-3.17-1.45-4.31c-0.968-1.131-2.174-2.113-3.604-2.951
					c-1.438-0.835-2.989-1.65-4.658-2.451c-1.668-0.802-3.22-1.736-4.657-2.804c-1.437-1.07-2.637-2.404-3.604-4.009
					c-0.972-1.6-1.451-3.669-1.451-6.204c0-2.869,0.532-5.324,1.603-7.363c1.066-2.034,2.504-3.702,4.307-5.005
					c1.803-1.302,3.869-2.251,6.21-2.854c2.336-0.601,4.733-0.899,7.206-0.899c2.136,0,4.258,0.186,6.359,0.552
					s4.119,0.917,6.059,1.649l-2.604,5.807c-1.396-0.598-3.003-1.085-4.805-1.451c-1.803-0.363-3.675-0.552-5.607-0.552
					c-1.603,0-3.153,0.167-4.654,0.501c-1.502,0.334-2.823,0.89-3.954,1.654c-1.142,0.77-2.052,1.737-2.757,2.905
					c-0.699,1.168-1.054,2.586-1.054,4.255c0,1.734,0.487,3.169,1.455,4.304c0.965,1.136,2.151,2.136,3.556,3.003
					c1.398,0.871,2.95,1.688,4.656,2.456c1.7,0.765,3.253,1.683,4.652,2.752c1.404,1.071,2.586,2.354,3.554,3.856
					c0.971,1.5,1.455,3.42,1.455,5.755c0,2.938-0.551,5.472-1.652,7.611c-1.1,2.138-2.556,3.869-4.356,5.203
					c-1.801,1.339-3.869,2.321-6.204,2.951c-2.34,0.636-4.739,0.956-7.21,0.956c-2.604,0-5.209-0.288-7.812-0.854
					c-2.601-0.565-4.974-1.45-7.107-2.65L655.253,766.921z"/>
				<path fill="#211357" d="M707.881,725.467c2.803-1.001,5.61-1.802,8.419-2.404c2.81-0.599,5.578-0.897,8.321-0.897
					c12.159,0,18.244,6.339,18.244,19.021c0,4.479-0.738,8.813-2.205,13.019c-1.47,4.207-3.625,7.929-6.46,11.168
					c-2.841,3.234-6.312,5.824-10.423,7.757c-4.11,1.938-8.801,2.905-14.077,2.905c-2.604,0-5.009-0.302-7.21-0.904l-4.438,18.526
					h-6.595L707.881,725.467z M704.029,769.122c2.07,0.603,4.18,0.896,6.319,0.896c4.147,0,7.827-0.813,11.037-2.448
					c3.213-1.638,5.917-3.77,8.128-6.409c2.206-2.637,3.878-5.607,5.021-8.911c1.135-3.304,1.704-6.658,1.704-10.06
					c0-5.011-1.107-8.666-3.313-10.971c-2.206-2.303-5.514-3.452-9.926-3.452c-1.538,0-3.095,0.137-4.665,0.398
					c-1.571,0.271-3.192,0.641-4.866,1.104L704.029,769.122z"/>
				<path fill="#211357" d="M782.669,775.729c-0.396-0.802-0.746-1.714-1.048-2.752c-0.3-1.032-0.514-2.085-0.647-3.154
					c-2.341,2.271-4.796,3.941-7.372,5.01c-2.576,1.064-5.234,1.604-7.976,1.604c-2.14,0-4.18-0.369-6.121-1.104
					c-1.937-0.736-3.642-1.872-5.114-3.406c-1.471-1.533-2.659-3.517-3.561-5.958c-0.903-2.434-1.354-5.319-1.354-8.66
					c0-5.339,0.865-10.177,2.604-14.519c1.736-4.338,4.156-8.025,7.261-11.062c3.109-3.039,6.784-5.394,11.024-7.062
					c4.239-1.668,8.868-2.502,13.877-2.502c4.139,0,8.113,0.699,11.923,2.104l-7.71,31.142c-0.398,1.668-0.732,3.231-1,4.703
					c-0.271,1.469-0.398,2.873-0.398,4.207c0,1.803,0.161,3.504,0.5,5.104c0.333,1.601,0.932,3.369,1.805,5.307L782.669,775.729z
					 M788.485,728.971c-1.205-0.265-2.31-0.469-3.31-0.598c-1.006-0.135-2.045-0.205-3.111-0.205c-4.146,0-7.823,0.803-11.033,2.405
					c-3.212,1.604-5.918,3.702-8.124,6.307c-2.211,2.604-3.896,5.575-5.064,8.911c-1.172,3.341-1.757,6.741-1.757,10.213
					c0,2.738,0.265,5.027,0.802,6.862c0.533,1.835,1.271,3.3,2.206,4.4c0.941,1.104,2.024,1.904,3.264,2.404
					c1.235,0.501,2.562,0.751,3.967,0.751c2.742,0,5.317-0.653,7.729-1.95c2.411-1.302,4.688-3.153,6.825-5.561
					c0-1.803,0.266-3.869,0.802-6.21c0.534-2.335,1.034-4.437,1.502-6.309L788.485,728.971z"/>
				<path fill="#211357" d="M835.486,772.625c-1.34,0.872-3.394,1.705-6.157,2.502c-2.772,0.803-5.858,1.206-9.265,1.206
					c-6.075,0-10.648-1.738-13.718-5.209c-3.07-3.471-4.604-8.243-4.604-14.318c0-4.536,0.699-8.893,2.1-13.065
					c1.402-4.171,3.457-7.859,6.158-11.062c2.706-3.206,6.023-5.759,9.962-7.658c3.938-1.903,8.41-2.854,13.419-2.854
					c3.472,0,6.909,0.564,10.312,1.701l-2.701,5.908c-1.539-0.604-3.056-1.021-4.558-1.252c-1.5-0.231-2.955-0.354-4.354-0.354
					c-3.54,0-6.762,0.751-9.663,2.252c-2.904,1.502-5.394,3.541-7.459,6.107c-2.072,2.57-3.676,5.543-4.806,8.916
					c-1.138,3.369-1.705,6.923-1.705,10.662c0,4.404,1.021,7.878,3.054,10.41c2.038,2.539,5.292,3.807,9.763,3.807
					c1.404,0,2.822-0.136,4.261-0.398c1.432-0.265,2.753-0.584,3.952-0.95c1.198-0.369,2.271-0.75,3.201-1.151
					c0.938-0.398,1.638-0.767,2.104-1.101L835.486,772.625z"/>
				<path fill="#211357" d="M890.452,735.48c0,3.737-0.917,6.772-2.752,9.108c-1.836,2.335-4.407,4.189-7.711,5.558
					c-3.304,1.37-7.274,2.354-11.912,2.955c-4.642,0.6-9.797,1.033-15.469,1.304v2.104c0,1.938,0.196,3.734,0.597,5.402
					c0.403,1.668,1.136,3.123,2.206,4.354c1.065,1.237,2.554,2.222,4.454,2.956c1.904,0.732,4.354,1.101,7.355,1.101
					c2.335,0,4.69-0.329,7.062-1.001c2.368-0.663,4.62-1.668,6.757-3.003l0.698,6.01c-2.268,1.266-4.771,2.252-7.506,2.952
					c-2.739,0.698-5.512,1.053-8.312,1.053c-3.671,0-6.757-0.469-9.26-1.405c-2.506-0.931-4.541-2.231-6.107-3.905
					c-1.568-1.664-2.688-3.671-3.354-6.006c-0.668-2.335-1.001-4.905-1.001-7.71c0-4.271,0.646-8.509,1.95-12.716
					c1.303-4.207,3.22-7.975,5.755-11.316c2.54-3.336,5.657-6.021,9.364-8.058c3.7-2.034,7.926-3.054,12.664-3.054
					c4.67,0,8.264,1.219,10.765,3.649C889.201,728.252,890.452,731.479,890.452,735.48z M875.337,728.071
					c-2.674,0-5.177,0.552-7.512,1.647c-2.335,1.104-4.44,2.591-6.31,4.458c-1.872,1.867-3.487,4.036-4.854,6.506
					c-1.371,2.472-2.393,5.074-3.054,7.812c5.672-0.135,10.443-0.5,14.317-1.104c3.868-0.599,6.987-1.433,9.36-2.503
					c2.367-1.068,4.054-2.354,5.056-3.854c1.001-1.501,1.501-3.22,1.501-5.157c0-2.604-0.783-4.555-2.354-5.855
					C879.924,728.72,877.871,728.071,875.337,728.071z"/>
			</g>
		</g>
	</g>
	<g>
		
			<linearGradient id="SVGID_1_" gradientUnits="userSpaceOnUse" x1="295.1182" y1="-1.1235" x2="431.9824" y2="-1.1235" gradientTransform="matrix(1 0 0 1 405 159)">
			<stop  offset="0.3988" style="stop-color:#7B35C6"/>
			<stop  offset="0.5806" style="stop-color:#7834C5"/>
			<stop  offset="0.7114" style="stop-color:#6F33C0"/>
			<stop  offset="0.8263" style="stop-color:#5F2FB8"/>
			<stop  offset="0.9313" style="stop-color:#492BAD"/>
			<stop  offset="1" style="stop-color:#3627A3"/>
		</linearGradient>
		<path fill="url(#SVGID_1_)" d="M770.422,232.12l-70.304-103.098l66.562-45.389l70.302,103.107L770.422,232.12z M719.877,132.753
			l54.285,79.618l43.062-29.369l-54.278-79.604L719.877,132.753z"/>
		
			<linearGradient id="SVGID_2_" gradientUnits="userSpaceOnUse" x1="-240.6992" y1="365.4019" x2="-103.8418" y2="365.4019" gradientTransform="matrix(1 0 0 1 405 159)">
			<stop  offset="0.3988" style="stop-color:#7B35C6"/>
			<stop  offset="0.5806" style="stop-color:#7834C5"/>
			<stop  offset="0.7114" style="stop-color:#6F33C0"/>
			<stop  offset="0.8263" style="stop-color:#5F2FB8"/>
			<stop  offset="0.9313" style="stop-color:#492BAD"/>
			<stop  offset="1" style="stop-color:#3627A3"/>
		</linearGradient>
		<path fill="url(#SVGID_2_)" d="M234.599,598.64l-70.298-103.093l66.562-45.383l70.295,103.097L234.599,598.64z M184.054,499.287
			l54.285,79.604l43.065-29.369l-54.281-79.604L184.054,499.287z"/>
		
			<linearGradient id="SVGID_3_" gradientUnits="userSpaceOnUse" x1="-305.4551" y1="430.437" x2="-215.7119" y2="430.437" gradientTransform="matrix(1 0 0 1 405 159)">
			<stop  offset="0.3988" style="stop-color:#7B35C6"/>
			<stop  offset="0.5806" style="stop-color:#7834C5"/>
			<stop  offset="0.7114" style="stop-color:#6F33C0"/>
			<stop  offset="0.8263" style="stop-color:#5F2FB8"/>
			<stop  offset="0.9313" style="stop-color:#492BAD"/>
			<stop  offset="1" style="stop-color:#3627A3"/>
		</linearGradient>
		<path fill="url(#SVGID_3_)" d="M145.436,638.041l-45.891-67.306l43.862-29.902l45.881,67.302L145.436,638.041z M114.179,573.511
			l34.023,49.89l26.45-18.03l-34.017-49.896L114.179,573.511z"/>
		
			<linearGradient id="SVGID_4_" gradientUnits="userSpaceOnUse" x1="405.7168" y1="-58.4292" x2="495.4541" y2="-58.4292" gradientTransform="matrix(1 0 0 1 405 159)">
			<stop  offset="0.3988" style="stop-color:#7B35C6"/>
			<stop  offset="0.5806" style="stop-color:#7834C5"/>
			<stop  offset="0.7114" style="stop-color:#6F33C0"/>
			<stop  offset="0.8263" style="stop-color:#5F2FB8"/>
			<stop  offset="0.9313" style="stop-color:#492BAD"/>
			<stop  offset="1" style="stop-color:#3627A3"/>
		</linearGradient>
		<path fill="url(#SVGID_4_)" d="M856.605,149.175l-45.889-67.306l43.854-29.902l45.883,67.301L856.605,149.175z M825.352,84.645
			l34.021,49.888l26.449-18.03l-34.019-49.896L825.352,84.645z"/>
		
			<linearGradient id="SVGID_5_" gradientUnits="userSpaceOnUse" x1="-144.4702" y1="93.0659" x2="-56.7471" y2="93.0659" gradientTransform="matrix(1 0 0 1 405 159)">
			<stop  offset="0.3988" style="stop-color:#7B35C6"/>
			<stop  offset="0.5806" style="stop-color:#7834C5"/>
			<stop  offset="0.7114" style="stop-color:#6F33C0"/>
			<stop  offset="0.8263" style="stop-color:#5F2FB8"/>
			<stop  offset="0.9313" style="stop-color:#492BAD"/>
			<stop  offset="1" style="stop-color:#3627A3"/>
		</linearGradient>
		<path fill="url(#SVGID_5_)" d="M348.253,252.063c0,24.23-19.639,43.864-43.861,43.864c-24.228,0-43.862-19.634-43.862-43.864
			c0-24.229,19.634-43.858,43.862-43.858C328.614,208.205,348.253,227.834,348.253,252.063z"/>
		
			<linearGradient id="SVGID_6_" gradientUnits="userSpaceOnUse" x1="-120.3066" y1="12.8662" x2="4.8154" y2="12.8662" gradientTransform="matrix(1 0 0 1 405 159)">
			<stop  offset="0.3988" style="stop-color:#7B35C6"/>
			<stop  offset="0.5806" style="stop-color:#7834C5"/>
			<stop  offset="0.7114" style="stop-color:#6F33C0"/>
			<stop  offset="0.8263" style="stop-color:#5F2FB8"/>
			<stop  offset="0.9313" style="stop-color:#492BAD"/>
			<stop  offset="1" style="stop-color:#3627A3"/>
		</linearGradient>
		<path fill="url(#SVGID_6_)" d="M295.417,199.836c0.24-11.992,3.406-22.279,9.889-30.244c9.815-12.062,26.222-18.169,48.76-18.169
			c13.711,0,28.95,2.284,45.206,6.515l-0.009-0.056l10.553-7.85c-20.157-5.913-39.019-9.143-55.75-9.143
			c-25.5,0-45.191,7.627-56.935,22.057c-8.636,10.616-12.608,24.193-12.432,39.897C288.113,201.477,291.695,200.476,295.417,199.836
			z"/>
		
			<linearGradient id="SVGID_7_" gradientUnits="userSpaceOnUse" x1="-130.1187" y1="187.0073" x2="333.3457" y2="187.0073" gradientTransform="matrix(1 0 0 1 405 159)">
			<stop  offset="0.3988" style="stop-color:#7B35C6"/>
			<stop  offset="0.5806" style="stop-color:#7834C5"/>
			<stop  offset="0.7114" style="stop-color:#6F33C0"/>
			<stop  offset="0.8263" style="stop-color:#5F2FB8"/>
			<stop  offset="0.9313" style="stop-color:#492BAD"/>
			<stop  offset="1" style="stop-color:#3627A3"/>
		</linearGradient>
		<path fill="url(#SVGID_7_)" d="M696.814,209.498c-41.719-58.132-110.292-92.839-183.43-92.839
			c-49.872,0-97.938,15.589-139.002,45.073c-17.41,12.488-32.784,27.006-46,43.085c4.133,2.108,7.942,4.736,11.367,7.808
			c12.293-14.795,26.551-28.178,42.64-39.73c38.718-27.803,84.017-42.501,130.996-42.501c68.72,0,133.119,32.571,172.268,87.121
			c33.168,46.203,45.754,103.004,35.43,159.931c-10.324,57.015-42.376,107.328-90.238,141.683
			c-38.737,27.794-84.039,42.483-131.011,42.483c0,0-0.01,0-0.02,0c-68.73,0-133.109-32.562-172.243-87.099
			c-33.159-46.219-45.75-103.02-35.436-159.95c0.636-3.508,1.358-6.988,2.16-10.449c-4.602-0.886-8.967-2.405-13.068-4.402
			c-0.968,4.097-1.86,8.226-2.611,12.4c-10.982,60.623,2.435,121.146,37.792,170.408c41.711,58.126,110.263,92.817,183.406,92.834
			c0.009,0,0.014,0,0.019,0c49.854,0,97.936-15.59,139.027-45.064c33.392-23.967,59.535-55.276,76.643-91.119
			c3.161-6.631,6.016-13.42,8.545-20.342c4.599-12.562,8.139-25.565,10.559-38.934C745.595,319.277,732.174,258.755,696.814,209.498
			z"/>
		
			<linearGradient id="SVGID_8_" gradientUnits="userSpaceOnUse" x1="-82.4307" y1="254.6543" x2="329.041" y2="254.6543" gradientTransform="matrix(1 0 0 1 405 159)">
			<stop  offset="0.3988" style="stop-color:#7B35C6"/>
			<stop  offset="0.5806" style="stop-color:#7834C5"/>
			<stop  offset="0.7114" style="stop-color:#6F33C0"/>
			<stop  offset="0.8263" style="stop-color:#5F2FB8"/>
			<stop  offset="0.9313" style="stop-color:#492BAD"/>
			<stop  offset="1" style="stop-color:#3627A3"/>
		</linearGradient>
		<path fill="url(#SVGID_8_)" d="M717.3,435.284c9.225,28.512,8.11,51.818-3.79,66.441c-9.811,12.067-26.203,18.177-48.743,18.177
			h-0.005c-57.943,0-142.666-39.64-221.104-103.456c-46.776-38.066-85.045-80.243-111.019-119.57
			c-3.146,1.992-6.514,3.647-10.07,4.954c26.392,40.143,65.544,82.991,114.441,122.791
			c80.229,65.267,167.491,105.812,227.749,105.812c0,0,0,0,0.005,0c25.495,0,45.177-7.622,56.917-22.052
			c16.033-19.712,16.367-50.217,1.585-87.495C721.434,425.757,719.451,430.562,717.3,435.284z"/>
	</g>
</g>
</svg>
