<?xml version="1.0" encoding="UTF-8" standalone="no"?>
<!-- Generator: Adobe Illustrator 16.0.0, SVG Export Plug-In . SVG Version: 6.00 Build 0)  -->

<svg
   xmlns:dc="http://purl.org/dc/elements/1.1/"
   xmlns:cc="http://creativecommons.org/ns#"
   xmlns:rdf="http://www.w3.org/1999/02/22-rdf-syntax-ns#"
   xmlns:svg="http://www.w3.org/2000/svg"
   xmlns="http://www.w3.org/2000/svg"
   xmlns:sodipodi="http://sodipodi.sourceforge.net/DTD/sodipodi-0.dtd"
   xmlns:inkscape="http://www.inkscape.org/namespaces/inkscape"
   version="1.1"
   id="Layer_1"
   x="0px"
   y="0px"
   width="2303.3616"
   height="586.07397"
   viewBox="0 0 2303.3616 586.07398"
   enable-background="new 0 0 1000 1000"
   xml:space="preserve"
   sodipodi:docname="logo.svg"
   inkscape:version="0.92.3 (2405546, 2018-03-11)"><metadata
   id="metadata368"><rdf:RDF><cc:Work
       rdf:about=""><dc:format>image/svg+xml</dc:format><dc:type
         rdf:resource="http://purl.org/dc/dcmitype/StillImage" /><dc:title></dc:title></cc:Work></rdf:RDF></metadata><defs
   id="defs366">
	
	
</defs><sodipodi:namedview
   pagecolor="#ffffff"
   bordercolor="#666666"
   borderopacity="1"
   objecttolerance="10"
   gridtolerance="10"
   guidetolerance="10"
   inkscape:pageopacity="0"
   inkscape:pageshadow="2"
   inkscape:window-width="2560"
   inkscape:window-height="1391"
   id="namedview364"
   showgrid="false"
   inkscape:zoom="0.86620581"
   inkscape:cx="1302.698"
   inkscape:cy="292.20006"
   inkscape:window-x="0"
   inkscape:window-y="0"
   inkscape:window-maximized="1"
   inkscape:current-layer="Layer_1" />
<g
   id="g1359"><g
     transform="matrix(1.8992379,0,0,1.8992379,603.33654,-1293.0358)"
     id="g237">
		<g
   id="g235">
			<g
   id="g221">
				<path
   d="m 222.365,919.238 v 25.728 H 118.97 V 781.383 h 29.744 v 137.855 z"
   id="path209"
   inkscape:connector-curvature="0"
   style="fill:#211357" />
				<path
   d="m 294.123,818.443 c 9.444,0 17.386,1.177 23.841,3.542 6.455,2.355 11.607,5.661 15.464,9.911 3.855,4.247 6.607,9.403 8.262,15.462 1.654,6.062 2.479,12.712 2.479,19.943 v 74.831 c -4.408,0.945 -11.056,2.09 -19.95,3.425 -8.892,1.334 -18.923,2.001 -30.096,2.001 -7.395,0 -14.161,-0.703 -20.3,-2.122 -6.135,-1.419 -11.372,-3.696 -15.694,-6.845 -4.333,-3.146 -7.715,-7.236 -10.153,-12.272 -2.441,-5.032 -3.656,-11.252 -3.656,-18.646 0,-7.086 1.376,-13.062 4.129,-17.939 2.753,-4.875 6.492,-8.853 11.214,-11.921 4.721,-3.07 10.184,-5.271 16.404,-6.61 6.213,-1.334 12.705,-2.006 19.476,-2.006 3.146,0 6.45,0.196 9.916,0.592 3.457,0.39 7.155,1.057 11.093,2.003 v -4.718 c 0,-3.312 -0.394,-6.45 -1.182,-9.444 -0.788,-2.987 -2.163,-5.624 -4.129,-7.908 -1.971,-2.273 -4.569,-4.046 -7.789,-5.311 -3.23,-1.257 -7.284,-1.887 -12.159,-1.887 -6.607,0 -12.668,0.473 -18.174,1.411 -5.513,0.945 -10,2.051 -13.456,3.306 l -3.541,-23.133 c 3.62,-1.257 8.888,-2.517 15.816,-3.775 6.921,-1.259 14.318,-1.89 22.185,-1.89 z m 2.364,106.458 c 8.809,0 15.497,-0.475 20.063,-1.419 V 891.85 c -1.576,-0.473 -3.858,-0.938 -6.849,-1.41 -2.989,-0.476 -6.292,-0.709 -9.912,-0.709 -3.15,0 -6.338,0.233 -9.559,0.709 -3.229,0.472 -6.14,1.338 -8.735,2.594 -2.595,1.261 -4.684,3.035 -6.255,5.311 -1.575,2.284 -2.358,5.158 -2.358,8.619 0,6.768 2.122,11.445 6.371,14.045 4.249,2.595 9.992,3.892 17.234,3.892 z"
   id="path211"
   inkscape:connector-curvature="0"
   style="fill:#211357" />
				<path
   d="m 381.697,883.354 c 0,-9.122 1.418,-17.656 4.25,-25.608 2.831,-7.942 6.881,-14.828 12.158,-20.654 5.269,-5.817 11.683,-10.389 19.234,-13.688 7.553,-3.309 16.051,-4.958 25.495,-4.958 11.646,0 22.66,2.123 33.048,6.372 l -6.14,23.368 c -3.306,-1.419 -7.044,-2.596 -11.21,-3.541 -4.175,-0.943 -8.618,-1.42 -13.34,-1.42 -11.174,0 -19.67,3.512 -25.491,10.508 -5.824,7.007 -8.735,16.88 -8.735,29.624 0,12.277 2.754,21.995 8.264,29.154 5.507,7.163 14.791,10.741 27.854,10.741 4.875,0 9.681,-0.473 14.396,-1.419 4.724,-0.944 8.812,-2.121 12.273,-3.539 l 4.013,23.604 c -3.146,1.573 -7.903,2.992 -14.28,4.249 -6.37,1.255 -12.942,1.886 -19.707,1.886 -10.547,0 -19.712,-1.612 -27.502,-4.838 -7.789,-3.227 -14.244,-7.706 -19.355,-13.456 -5.115,-5.741 -8.934,-12.586 -11.45,-20.537 -2.514,-7.942 -3.775,-16.557 -3.775,-25.848 z"
   id="path213"
   inkscape:connector-curvature="0"
   style="fill:#211357" />
				<path
   d="m 610.667,941.189 c -5.509,1.418 -12.668,2.87 -21.477,4.368 -8.818,1.49 -18.494,2.241 -29.037,2.241 -9.916,0 -18.216,-1.417 -24.901,-4.253 -6.691,-2.831 -12.039,-6.762 -16.051,-11.798 -4.014,-5.037 -6.886,-11.057 -8.619,-18.062 -1.734,-6.997 -2.596,-14.673 -2.596,-23.014 V 821.51 h 28.562 v 64.681 c 0,13.215 1.923,22.656 5.783,28.323 3.856,5.668 10.579,8.498 20.18,8.498 3.463,0 7.123,-0.154 10.979,-0.472 3.854,-0.315 6.729,-0.71 8.613,-1.182 v -99.851 h 28.562 z"
   id="path215"
   inkscape:connector-curvature="0"
   style="fill:#211357" />
				<path
   d="m 656.463,825.524 c 5.51,-1.57 12.67,-3.067 21.482,-4.485 8.812,-1.419 18.566,-2.122 29.271,-2.122 10.068,0 18.487,1.376 25.258,4.128 6.763,2.758 12.154,6.608 16.168,11.566 4.015,4.959 6.847,10.939 8.498,17.94 1.653,7.003 2.479,14.676 2.479,23.019 v 69.396 H 731.056 V 880.05 c 0,-6.604 -0.436,-12.23 -1.297,-16.875 -0.866,-4.639 -2.284,-8.415 -4.249,-11.33 -1.969,-2.909 -4.643,-5.037 -8.023,-6.377 -3.39,-1.334 -7.519,-2.001 -12.396,-2.001 -3.618,0 -7.395,0.232 -11.33,0.704 -3.934,0.473 -6.844,0.866 -8.731,1.182 v 99.613 h -28.563 z"
   id="path217"
   inkscape:connector-curvature="0"
   style="fill:#211357" />
				<path
   d="m 845.064,818.443 c 9.442,0 17.387,1.177 23.842,3.542 6.454,2.355 11.604,5.661 15.462,9.911 3.854,4.247 6.606,9.403 8.262,15.462 1.654,6.062 2.479,12.712 2.479,19.943 v 74.831 c -4.405,0.945 -11.058,2.09 -19.947,3.425 -8.893,1.334 -18.925,2.001 -30.098,2.001 -7.396,0 -14.16,-0.703 -20.301,-2.122 -6.137,-1.419 -11.372,-3.696 -15.694,-6.845 -4.332,-3.146 -7.717,-7.236 -10.151,-12.272 -2.443,-5.032 -3.657,-11.252 -3.657,-18.646 0,-7.086 1.377,-13.062 4.129,-17.939 2.753,-4.875 6.492,-8.853 11.216,-11.921 4.723,-3.07 10.186,-5.271 16.401,-6.61 6.216,-1.334 12.707,-2.006 19.479,-2.006 3.146,0 6.448,0.196 9.917,0.592 3.456,0.39 7.152,1.057 11.093,2.003 v -4.718 c 0,-3.312 -0.396,-6.45 -1.183,-9.444 -0.786,-2.987 -2.163,-5.624 -4.129,-7.908 -1.97,-2.273 -4.568,-4.046 -7.791,-5.311 -3.229,-1.257 -7.282,-1.887 -12.157,-1.887 -6.607,0 -12.669,0.473 -18.175,1.411 -5.515,0.945 -10,2.051 -13.455,3.306 l -3.54,-23.133 c 3.619,-1.257 8.889,-2.517 15.813,-3.775 6.921,-1.259 14.316,-1.89 22.185,-1.89 z m 2.363,106.458 c 8.811,0 15.495,-0.475 20.064,-1.419 V 891.85 c -1.575,-0.473 -3.86,-0.938 -6.849,-1.41 -2.989,-0.476 -6.296,-0.709 -9.912,-0.709 -3.15,0 -6.342,0.233 -9.561,0.709 -3.23,0.472 -6.14,1.338 -8.734,2.594 -2.596,1.261 -4.686,3.035 -6.258,5.311 -1.574,2.284 -2.355,5.158 -2.355,8.619 0,6.768 2.122,11.445 6.371,14.045 4.25,2.595 9.991,3.892 17.234,3.892 z"
   id="path219"
   inkscape:connector-curvature="0"
   style="fill:#211357" />
			</g>
			<g
   id="g233">
				<path
   d="m 655.253,766.921 c 2.471,1.335 4.639,2.238 6.511,2.701 1.867,0.469 3.974,0.7 6.309,0.7 1.668,0 3.271,-0.183 4.807,-0.553 1.533,-0.36 2.867,-0.916 4.007,-1.648 1.131,-0.732 2.034,-1.705 2.702,-2.905 0.667,-1.2 1.001,-2.6 1.001,-4.203 0,-1.735 -0.486,-3.17 -1.45,-4.31 -0.968,-1.131 -2.174,-2.113 -3.604,-2.951 -1.438,-0.835 -2.989,-1.65 -4.658,-2.451 -1.668,-0.802 -3.22,-1.736 -4.657,-2.804 -1.437,-1.07 -2.637,-2.404 -3.604,-4.009 -0.972,-1.6 -1.451,-3.669 -1.451,-6.204 0,-2.869 0.532,-5.324 1.603,-7.363 1.066,-2.034 2.504,-3.702 4.307,-5.005 1.803,-1.302 3.869,-2.251 6.21,-2.854 2.336,-0.601 4.733,-0.899 7.206,-0.899 2.136,0 4.258,0.186 6.359,0.552 2.101,0.366 4.119,0.917 6.059,1.649 l -2.604,5.807 c -1.396,-0.598 -3.003,-1.085 -4.805,-1.451 -1.803,-0.363 -3.675,-0.552 -5.607,-0.552 -1.603,0 -3.153,0.167 -4.654,0.501 -1.502,0.334 -2.823,0.89 -3.954,1.654 -1.142,0.77 -2.052,1.737 -2.757,2.905 -0.699,1.168 -1.054,2.586 -1.054,4.255 0,1.734 0.487,3.169 1.455,4.304 0.965,1.136 2.151,2.136 3.556,3.003 1.398,0.871 2.95,1.688 4.656,2.456 1.7,0.765 3.253,1.683 4.652,2.752 1.404,1.071 2.586,2.354 3.554,3.856 0.971,1.5 1.455,3.42 1.455,5.755 0,2.938 -0.551,5.472 -1.652,7.611 -1.1,2.138 -2.556,3.869 -4.356,5.203 -1.801,1.339 -3.869,2.321 -6.204,2.951 -2.34,0.636 -4.739,0.956 -7.21,0.956 -2.604,0 -5.209,-0.288 -7.812,-0.854 -2.601,-0.565 -4.974,-1.45 -7.107,-2.65 z"
   id="path223"
   inkscape:connector-curvature="0"
   style="fill:#211357" />
				<path
   d="m 707.881,725.467 c 2.803,-1.001 5.61,-1.802 8.419,-2.404 2.81,-0.599 5.578,-0.897 8.321,-0.897 12.159,0 18.244,6.339 18.244,19.021 0,4.479 -0.738,8.813 -2.205,13.019 -1.47,4.207 -3.625,7.929 -6.46,11.168 -2.841,3.234 -6.312,5.824 -10.423,7.757 -4.11,1.938 -8.801,2.905 -14.077,2.905 -2.604,0 -5.009,-0.302 -7.21,-0.904 l -4.438,18.526 h -6.595 z m -3.852,43.655 c 2.07,0.603 4.18,0.896 6.319,0.896 4.147,0 7.827,-0.813 11.037,-2.448 3.213,-1.638 5.917,-3.77 8.128,-6.409 2.206,-2.637 3.878,-5.607 5.021,-8.911 1.135,-3.304 1.704,-6.658 1.704,-10.06 0,-5.011 -1.107,-8.666 -3.313,-10.971 -2.206,-2.303 -5.514,-3.452 -9.926,-3.452 -1.538,0 -3.095,0.137 -4.665,0.398 -1.571,0.271 -3.192,0.641 -4.866,1.104 z"
   id="path225"
   inkscape:connector-curvature="0"
   style="fill:#211357" />
				<path
   d="m 782.669,775.729 c -0.396,-0.802 -0.746,-1.714 -1.048,-2.752 -0.3,-1.032 -0.514,-2.085 -0.647,-3.154 -2.341,2.271 -4.796,3.941 -7.372,5.01 -2.576,1.064 -5.234,1.604 -7.976,1.604 -2.14,0 -4.18,-0.369 -6.121,-1.104 -1.937,-0.736 -3.642,-1.872 -5.114,-3.406 -1.471,-1.533 -2.659,-3.517 -3.561,-5.958 -0.903,-2.434 -1.354,-5.319 -1.354,-8.66 0,-5.339 0.865,-10.177 2.604,-14.519 1.736,-4.338 4.156,-8.025 7.261,-11.062 3.109,-3.039 6.784,-5.394 11.024,-7.062 4.239,-1.668 8.868,-2.502 13.877,-2.502 4.139,0 8.113,0.699 11.923,2.104 l -7.71,31.142 c -0.398,1.668 -0.732,3.231 -1,4.703 -0.271,1.469 -0.398,2.873 -0.398,4.207 0,1.803 0.161,3.504 0.5,5.104 0.333,1.601 0.932,3.369 1.805,5.307 z m 5.816,-46.758 c -1.205,-0.265 -2.31,-0.469 -3.31,-0.598 -1.006,-0.135 -2.045,-0.205 -3.111,-0.205 -4.146,0 -7.823,0.803 -11.033,2.405 -3.212,1.604 -5.918,3.702 -8.124,6.307 -2.211,2.604 -3.896,5.575 -5.064,8.911 -1.172,3.341 -1.757,6.741 -1.757,10.213 0,2.738 0.265,5.027 0.802,6.862 0.533,1.835 1.271,3.3 2.206,4.4 0.941,1.104 2.024,1.904 3.264,2.404 1.235,0.501 2.562,0.751 3.967,0.751 2.742,0 5.317,-0.653 7.729,-1.95 2.411,-1.302 4.688,-3.153 6.825,-5.561 0,-1.803 0.266,-3.869 0.802,-6.21 0.534,-2.335 1.034,-4.437 1.502,-6.309 z"
   id="path227"
   inkscape:connector-curvature="0"
   style="fill:#211357" />
				<path
   d="m 835.486,772.625 c -1.34,0.872 -3.394,1.705 -6.157,2.502 -2.772,0.803 -5.858,1.206 -9.265,1.206 -6.075,0 -10.648,-1.738 -13.718,-5.209 -3.07,-3.471 -4.604,-8.243 -4.604,-14.318 0,-4.536 0.699,-8.893 2.1,-13.065 1.402,-4.171 3.457,-7.859 6.158,-11.062 2.706,-3.206 6.023,-5.759 9.962,-7.658 3.938,-1.903 8.41,-2.854 13.419,-2.854 3.472,0 6.909,0.564 10.312,1.701 l -2.701,5.908 c -1.539,-0.604 -3.056,-1.021 -4.558,-1.252 -1.5,-0.231 -2.955,-0.354 -4.354,-0.354 -3.54,0 -6.762,0.751 -9.663,2.252 -2.904,1.502 -5.394,3.541 -7.459,6.107 -2.072,2.57 -3.676,5.543 -4.806,8.916 -1.138,3.369 -1.705,6.923 -1.705,10.662 0,4.404 1.021,7.878 3.054,10.41 2.038,2.539 5.292,3.807 9.763,3.807 1.404,0 2.822,-0.136 4.261,-0.398 1.432,-0.265 2.753,-0.584 3.952,-0.95 1.198,-0.369 2.271,-0.75 3.201,-1.151 0.938,-0.398 1.638,-0.767 2.104,-1.101 z"
   id="path229"
   inkscape:connector-curvature="0"
   style="fill:#211357" />
				<path
   d="m 890.452,735.48 c 0,3.737 -0.917,6.772 -2.752,9.108 -1.836,2.335 -4.407,4.189 -7.711,5.558 -3.304,1.37 -7.274,2.354 -11.912,2.955 -4.642,0.6 -9.797,1.033 -15.469,1.304 v 2.104 c 0,1.938 0.196,3.734 0.597,5.402 0.403,1.668 1.136,3.123 2.206,4.354 1.065,1.237 2.554,2.222 4.454,2.956 1.904,0.732 4.354,1.101 7.355,1.101 2.335,0 4.69,-0.329 7.062,-1.001 2.368,-0.663 4.62,-1.668 6.757,-3.003 l 0.698,6.01 c -2.268,1.266 -4.771,2.252 -7.506,2.952 -2.739,0.698 -5.512,1.053 -8.312,1.053 -3.671,0 -6.757,-0.469 -9.26,-1.405 -2.506,-0.931 -4.541,-2.231 -6.107,-3.905 -1.568,-1.664 -2.688,-3.671 -3.354,-6.006 -0.668,-2.335 -1.001,-4.905 -1.001,-7.71 0,-4.271 0.646,-8.509 1.95,-12.716 1.303,-4.207 3.22,-7.975 5.755,-11.316 2.54,-3.336 5.657,-6.021 9.364,-8.058 3.7,-2.034 7.926,-3.054 12.664,-3.054 4.67,0 8.264,1.219 10.765,3.649 2.506,2.44 3.757,5.667 3.757,9.668 z m -15.115,-7.409 c -2.674,0 -5.177,0.552 -7.512,1.647 -2.335,1.104 -4.44,2.591 -6.31,4.458 -1.872,1.867 -3.487,4.036 -4.854,6.506 -1.371,2.472 -2.393,5.074 -3.054,7.812 5.672,-0.135 10.443,-0.5 14.317,-1.104 3.868,-0.599 6.987,-1.433 9.36,-2.503 2.367,-1.068 4.054,-2.354 5.056,-3.854 1.001,-1.501 1.501,-3.22 1.501,-5.157 0,-2.604 -0.783,-4.555 -2.354,-5.855 -1.563,-1.301 -3.616,-1.95 -6.15,-1.95 z"
   id="path231"
   inkscape:connector-curvature="0"
   style="fill:#211357" />
			</g>
		</g>
	</g><g
     transform="translate(-99.545,-51.967)"
     id="g359">
		
			<linearGradient
   id="SVGID_1_"
   gradientUnits="userSpaceOnUse"
   x1="295.11819"
   y1="-1.1235"
   x2="431.98239"
   y2="-1.1235"
   gradientTransform="translate(405,159)">
			<stop
   offset="0.3988"
   style="stop-color:#7B35C6"
   id="stop239" />
			<stop
   offset="0.5806"
   style="stop-color:#7834C5"
   id="stop241" />
			<stop
   offset="0.7114"
   style="stop-color:#6F33C0"
   id="stop243" />
			<stop
   offset="0.8263"
   style="stop-color:#5F2FB8"
   id="stop245" />
			<stop
   offset="0.9313"
   style="stop-color:#492BAD"
   id="stop247" />
			<stop
   offset="1"
   style="stop-color:#3627A3"
   id="stop249" />
		</linearGradient>
		<path
   d="M 770.422,232.12 700.118,129.022 766.68,83.633 836.982,186.74 Z m -50.545,-99.367 54.285,79.618 43.062,-29.369 -54.278,-79.604 z"
   id="path252"
   style="fill:url(#SVGID_1_)"
   inkscape:connector-curvature="0" />
		
			<linearGradient
   id="SVGID_2_"
   gradientUnits="userSpaceOnUse"
   x1="-240.6992"
   y1="365.40189"
   x2="-103.8418"
   y2="365.40189"
   gradientTransform="translate(405,159)">
			<stop
   offset="0.3988"
   style="stop-color:#7B35C6"
   id="stop254" />
			<stop
   offset="0.5806"
   style="stop-color:#7834C5"
   id="stop256" />
			<stop
   offset="0.7114"
   style="stop-color:#6F33C0"
   id="stop258" />
			<stop
   offset="0.8263"
   style="stop-color:#5F2FB8"
   id="stop260" />
			<stop
   offset="0.9313"
   style="stop-color:#492BAD"
   id="stop262" />
			<stop
   offset="1"
   style="stop-color:#3627A3"
   id="stop264" />
		</linearGradient>
		<path
   d="m 234.599,598.64 -70.298,-103.093 66.562,-45.383 70.295,103.097 z m -50.545,-99.353 54.285,79.604 43.065,-29.369 -54.281,-79.604 z"
   id="path267"
   style="fill:url(#SVGID_2_)"
   inkscape:connector-curvature="0" />
		
			<linearGradient
   id="SVGID_3_"
   gradientUnits="userSpaceOnUse"
   x1="-305.45511"
   y1="430.43701"
   x2="-215.7119"
   y2="430.43701"
   gradientTransform="translate(405,159)">
			<stop
   offset="0.3988"
   style="stop-color:#7B35C6"
   id="stop269" />
			<stop
   offset="0.5806"
   style="stop-color:#7834C5"
   id="stop271" />
			<stop
   offset="0.7114"
   style="stop-color:#6F33C0"
   id="stop273" />
			<stop
   offset="0.8263"
   style="stop-color:#5F2FB8"
   id="stop275" />
			<stop
   offset="0.9313"
   style="stop-color:#492BAD"
   id="stop277" />
			<stop
   offset="1"
   style="stop-color:#3627A3"
   id="stop279" />
		</linearGradient>
		<path
   d="m 145.436,638.041 -45.891,-67.306 43.862,-29.902 45.881,67.302 z m -31.257,-64.53 34.023,49.89 26.45,-18.03 -34.017,-49.896 z"
   id="path282"
   style="fill:url(#SVGID_3_)"
   inkscape:connector-curvature="0" />
		
			<linearGradient
   id="SVGID_4_"
   gradientUnits="userSpaceOnUse"
   x1="405.7168"
   y1="-58.429199"
   x2="495.4541"
   y2="-58.429199"
   gradientTransform="translate(405,159)">
			<stop
   offset="0.3988"
   style="stop-color:#7B35C6"
   id="stop284" />
			<stop
   offset="0.5806"
   style="stop-color:#7834C5"
   id="stop286" />
			<stop
   offset="0.7114"
   style="stop-color:#6F33C0"
   id="stop288" />
			<stop
   offset="0.8263"
   style="stop-color:#5F2FB8"
   id="stop290" />
			<stop
   offset="0.9313"
   style="stop-color:#492BAD"
   id="stop292" />
			<stop
   offset="1"
   style="stop-color:#3627A3"
   id="stop294" />
		</linearGradient>
		<path
   d="m 856.605,149.175 -45.889,-67.306 43.854,-29.902 45.883,67.301 z m -31.253,-64.53 34.021,49.888 26.449,-18.03 -34.019,-49.896 z"
   id="path297"
   style="fill:url(#SVGID_4_)"
   inkscape:connector-curvature="0" />
		
			<linearGradient
   id="SVGID_5_"
   gradientUnits="userSpaceOnUse"
   x1="-144.4702"
   y1="93.065903"
   x2="-56.747101"
   y2="93.065903"
   gradientTransform="translate(405,159)">
			<stop
   offset="0.3988"
   style="stop-color:#7B35C6"
   id="stop299" />
			<stop
   offset="0.5806"
   style="stop-color:#7834C5"
   id="stop301" />
			<stop
   offset="0.7114"
   style="stop-color:#6F33C0"
   id="stop303" />
			<stop
   offset="0.8263"
   style="stop-color:#5F2FB8"
   id="stop305" />
			<stop
   offset="0.9313"
   style="stop-color:#492BAD"
   id="stop307" />
			<stop
   offset="1"
   style="stop-color:#3627A3"
   id="stop309" />
		</linearGradient>
		<path
   d="m 348.253,252.063 c 0,24.23 -19.639,43.864 -43.861,43.864 -24.228,0 -43.862,-19.634 -43.862,-43.864 0,-24.229 19.634,-43.858 43.862,-43.858 24.222,0 43.861,19.629 43.861,43.858 z"
   id="path312"
   style="fill:url(#SVGID_5_)"
   inkscape:connector-curvature="0" />
		
			<linearGradient
   id="SVGID_6_"
   gradientUnits="userSpaceOnUse"
   x1="-120.3066"
   y1="12.8662"
   x2="4.8154001"
   y2="12.8662"
   gradientTransform="translate(405,159)">
			<stop
   offset="0.3988"
   style="stop-color:#7B35C6"
   id="stop314" />
			<stop
   offset="0.5806"
   style="stop-color:#7834C5"
   id="stop316" />
			<stop
   offset="0.7114"
   style="stop-color:#6F33C0"
   id="stop318" />
			<stop
   offset="0.8263"
   style="stop-color:#5F2FB8"
   id="stop320" />
			<stop
   offset="0.9313"
   style="stop-color:#492BAD"
   id="stop322" />
			<stop
   offset="1"
   style="stop-color:#3627A3"
   id="stop324" />
		</linearGradient>
		<path
   d="m 295.417,199.836 c 0.24,-11.992 3.406,-22.279 9.889,-30.244 9.815,-12.062 26.222,-18.169 48.76,-18.169 13.711,0 28.95,2.284 45.206,6.515 l -0.009,-0.056 10.553,-7.85 c -20.157,-5.913 -39.019,-9.143 -55.75,-9.143 -25.5,0 -45.191,7.627 -56.935,22.057 -8.636,10.616 -12.608,24.193 -12.432,39.897 3.414,-1.366 6.996,-2.367 10.718,-3.007 z"
   id="path327"
   style="fill:url(#SVGID_6_)"
   inkscape:connector-curvature="0" />
		
			<linearGradient
   id="SVGID_7_"
   gradientUnits="userSpaceOnUse"
   x1="-130.1187"
   y1="187.00729"
   x2="333.3457"
   y2="187.00729"
   gradientTransform="translate(405,159)">
			<stop
   offset="0.3988"
   style="stop-color:#7B35C6"
   id="stop329" />
			<stop
   offset="0.5806"
   style="stop-color:#7834C5"
   id="stop331" />
			<stop
   offset="0.7114"
   style="stop-color:#6F33C0"
   id="stop333" />
			<stop
   offset="0.8263"
   style="stop-color:#5F2FB8"
   id="stop335" />
			<stop
   offset="0.9313"
   style="stop-color:#492BAD"
   id="stop337" />
			<stop
   offset="1"
   style="stop-color:#3627A3"
   id="stop339" />
		</linearGradient>
		<path
   d="m 696.814,209.498 c -41.719,-58.132 -110.292,-92.839 -183.43,-92.839 -49.872,0 -97.938,15.589 -139.002,45.073 -17.41,12.488 -32.784,27.006 -46,43.085 4.133,2.108 7.942,4.736 11.367,7.808 12.293,-14.795 26.551,-28.178 42.64,-39.73 38.718,-27.803 84.017,-42.501 130.996,-42.501 68.72,0 133.119,32.571 172.268,87.121 33.168,46.203 45.754,103.004 35.43,159.931 -10.324,57.015 -42.376,107.328 -90.238,141.683 -38.737,27.794 -84.039,42.483 -131.011,42.483 0,0 -0.01,0 -0.02,0 -68.73,0 -133.109,-32.562 -172.243,-87.099 -33.159,-46.219 -45.75,-103.02 -35.436,-159.95 0.636,-3.508 1.358,-6.988 2.16,-10.449 -4.602,-0.886 -8.967,-2.405 -13.068,-4.402 -0.968,4.097 -1.86,8.226 -2.611,12.4 -10.982,60.623 2.435,121.146 37.792,170.408 41.711,58.126 110.263,92.817 183.406,92.834 0.009,0 0.014,0 0.019,0 49.854,0 97.936,-15.59 139.027,-45.064 33.392,-23.967 59.535,-55.276 76.643,-91.119 3.161,-6.631 6.016,-13.42 8.545,-20.342 4.599,-12.562 8.139,-25.565 10.559,-38.934 10.988,-60.618 -2.433,-121.14 -37.793,-170.397 z"
   id="path342"
   style="fill:url(#SVGID_7_)"
   inkscape:connector-curvature="0" />
		
			<linearGradient
   id="SVGID_8_"
   gradientUnits="userSpaceOnUse"
   x1="-82.430702"
   y1="254.6543"
   x2="329.04099"
   y2="254.6543"
   gradientTransform="translate(405,159)">
			<stop
   offset="0.3988"
   style="stop-color:#7B35C6"
   id="stop344" />
			<stop
   offset="0.5806"
   style="stop-color:#7834C5"
   id="stop346" />
			<stop
   offset="0.7114"
   style="stop-color:#6F33C0"
   id="stop348" />
			<stop
   offset="0.8263"
   style="stop-color:#5F2FB8"
   id="stop350" />
			<stop
   offset="0.9313"
   style="stop-color:#492BAD"
   id="stop352" />
			<stop
   offset="1"
   style="stop-color:#3627A3"
   id="stop354" />
		</linearGradient>
		<path
   d="m 717.3,435.284 c 9.225,28.512 8.11,51.818 -3.79,66.441 -9.811,12.067 -26.203,18.177 -48.743,18.177 h -0.005 c -57.943,0 -142.666,-39.64 -221.104,-103.456 -46.776,-38.066 -85.045,-80.243 -111.019,-119.57 -3.146,1.992 -6.514,3.647 -10.07,4.954 26.392,40.143 65.544,82.991 114.441,122.791 80.229,65.267 167.491,105.812 227.749,105.812 0,0 0,0 0.005,0 25.495,0 45.177,-7.622 56.917,-22.052 16.033,-19.712 16.367,-50.217 1.585,-87.495 -1.832,4.871 -3.815,9.676 -5.966,14.398 z"
   id="path357"
   style="fill:url(#SVGID_8_)"
   inkscape:connector-curvature="0" />
	</g></g>
</svg>